<?xml version="1.0" encoding="UTF-8" standalone="no"?>
<svg
   viewBox="0 0 383.2395 304.00113"
   version="1.1"
   id="svg20"
   sodipodi:docname="history_redo.svg"
   xml:space="preserve"
   inkscape:version="1.2.2 (732a01da63, 2022-12-09)"
   inkscape:export-filename="undo.svg"
   inkscape:export-xdpi="96"
   inkscape:export-ydpi="96"
   width="383.2395"
   height="304.00113"
   xmlns:inkscape="http://www.inkscape.org/namespaces/inkscape"
   xmlns:sodipodi="http://sodipodi.sourceforge.net/DTD/sodipodi-0.dtd"
   xmlns="http://www.w3.org/2000/svg"
   xmlns:svg="http://www.w3.org/2000/svg"><defs
     id="defs24"><rect
       x="75.169044"
       y="147.26997"
       width="365.10681"
       height="222.43903"
       id="rect8366" /><rect
       x="204.03027"
       y="193.29182"
       width="90.509666"
       height="102.78217"
       id="rect870" /><rect
       x="75.169044"
       y="147.26997"
       width="365.10681"
       height="222.43903"
       id="rect9898" /><rect
       x="75.169044"
       y="147.26997"
       width="365.10681"
       height="222.43903"
       id="rect10806" /><rect
       x="75.169044"
       y="147.26997"
       width="365.10681"
       height="222.43903"
       id="rect10864" /></defs><sodipodi:namedview
     id="namedview22"
     pagecolor="#ffffff"
     bordercolor="#000000"
     borderopacity="0.25"
     inkscape:showpageshadow="2"
     inkscape:pageopacity="0.0"
     inkscape:pagecheckerboard="0"
     inkscape:deskcolor="#d1d1d1"
     showgrid="false"
     inkscape:zoom="0.92187499"
     inkscape:cx="37.423729"
     inkscape:cy="173.01695"
     inkscape:window-width="1280"
     inkscape:window-height="730"
     inkscape:window-x="-6"
     inkscape:window-y="-6"
     inkscape:window-maximized="1"
     inkscape:current-layer="svg20"
     showguides="false" /><!-- react-empty: 6 --><path
     style="fill:#80d6ff;fill-opacity:1;stroke:none;stroke-width:4.5;stroke-dasharray:none;stroke-opacity:1"
     d="m 15.64189,295.71566 c 34.45338,-57.73075 59.97291,-86.13304 89.17249,-99.24565 27.32714,-12.27175 49.40566,-17.90884 78.17512,-19.95966 l 9.25,-0.65938 v 40.07565 40.07564 l 95.5,-63.66571 c 52.525,-35.01614 95.5,-63.96709 95.5,-64.33543 0,-0.36833 -42.975,-29.31929 -95.5,-64.33542 L 192.2395,0 v 39.98151 39.98152 l -2.25,0.45633 c -1.2375,0.25099 -6.53573,0.71149 -11.77383,1.02334 -21.23555,1.26426 -48.29419,7.1487 -67.3415,14.64478 -23.14058,9.10698 -42.1005,21.45439 -59.7534,38.91364 -26.496,26.20536 -41.04145,54.46256 -47.91662,93.08684 -1.86698,10.48857 -2.28666,17.33583 -2.70685,44.16316 l -0.4973,31.75 5.36975,-0.0355 5.36975,-0.0355 4.90239,-8.21455 z"
     id="path33222"
     inkscape:label="redo"
     inkscape:export-filename="path33222.svg"
     inkscape:export-xdpi="96"
     inkscape:export-ydpi="96" /></svg>
