<?xml version="1.0" encoding="UTF-8" standalone="no"?>
<svg
   viewBox="0 0 512 512"
   style="height: 512px; width: 512px;"
   version="1.1"
   id="svg20"
   sodipodi:docname="icon_analysis1.svg"
   xml:space="preserve"
   inkscape:version="1.2.2 (732a01da63, 2022-12-09)"
   xmlns:inkscape="http://www.inkscape.org/namespaces/inkscape"
   xmlns:sodipodi="http://sodipodi.sourceforge.net/DTD/sodipodi-0.dtd"
   xmlns="http://www.w3.org/2000/svg"
   xmlns:svg="http://www.w3.org/2000/svg"><defs
     id="defs24"><rect
       x="108.91842"
       y="39.885617"
       width="285.33557"
       height="227.0412"
       id="rect3408" /><rect
       x="91.457628"
       y="26.847458"
       width="35.322034"
       height="24.881356"
       id="rect3398" /><rect
       x="75.169047"
       y="147.26997"
       width="365.1068"
       height="222.43902"
       id="rect8366" /><rect
       x="204.03027"
       y="193.29183"
       width="90.509669"
       height="102.78217"
       id="rect870" /><rect
       x="75.169047"
       y="147.26997"
       width="365.1068"
       height="222.43902"
       id="rect9898" /><rect
       x="75.169047"
       y="147.26997"
       width="365.1068"
       height="222.43902"
       id="rect10806" /><rect
       x="75.169047"
       y="147.26997"
       width="365.1068"
       height="222.43902"
       id="rect10864" /></defs><sodipodi:namedview
     id="namedview22"
     pagecolor="#ffffff"
     bordercolor="#000000"
     borderopacity="0.25"
     inkscape:showpageshadow="2"
     inkscape:pageopacity="0.0"
     inkscape:pagecheckerboard="0"
     inkscape:deskcolor="#d1d1d1"
     showgrid="false"
     inkscape:zoom="0.65186406"
     inkscape:cx="82.072327"
     inkscape:cy="155.70731"
     inkscape:window-width="1280"
     inkscape:window-height="730"
     inkscape:window-x="-6"
     inkscape:window-y="-6"
     inkscape:window-maximized="1"
     inkscape:current-layer="svg20"
     showguides="false"
     inkscape:lockguides="false" /><!-- react-empty: 6 --><path
     id="path3525"
     style="display:inline;fill:#000000;stroke-width:0.787809"
     inkscape:label="analysis1"
     d="m 317.45117,54.001953 c -14.77273,0.138607 -27.49788,14.214551 -23.25976,29.953125 2.05882,7.645583 -9.02075,16.776812 -14.33008,11.810547 -8.04269,-7.522992 -2.86408,-11.519161 -62.84571,48.505855 -35.31122,35.33678 -52.32317,52.89257 -52.67773,54.35938 -0.8019,3.3174 0.17984,5.86266 3.75586,9.74219 3.26731,3.5446 3.26717,3.54488 -10.57813,17.48242 -20.50448,20.64115 -20.44633,18.77867 -1.17968,37.76953 16.9427,16.70017 14.89251,16.8602 34.57812,-2.72656 14.81357,-14.7392 14.81417,-14.7391 17.77344,-11.91016 8.35098,7.9832 7.96322,8.17699 32.09375,-15.89062 22.90486,-22.84514 20.6555,-21.8603 44.91992,-19.69922 62.97168,5.60845 94.10068,77.3979 55.00195,126.84375 -9.67038,12.22955 -14.63889,15.24993 -18.69726,11.36133 -10.81248,-10.36016 -24.2926,-17.09179 -39.25977,-19.60547 -2.95427,-0.49616 -2.95312,-0.49713 -2.95312,-14.14063 0,-20.21143 11.75303,-17.79687 -86.66016,-17.79687 -99.315719,0 -86.6582,-3.45135 -86.6582,23.63476 0,26.09842 -2.82508,23.63281 27.0957,23.63281 22.94178,10e-6 22.94159,9.1e-4 41.44922,30.83008 10.17919,16.95604 18.62509,31.136 18.76953,31.51172 0.14443,0.37573 -5.04723,0.6836 -11.53711,0.6836 -16.44917,0 -25.68802,3.25993 -33.75,11.91015 -9.2163,9.88874 -13.79292,27.92778 -8.44336,33.27735 3.27698,3.27698 260.43395,3.27698 263.71094,0 5.34957,-5.34957 0.77294,-23.38861 -8.44336,-33.27735 -8.60326,-9.23098 -16.98023,-11.91015 -37.23047,-11.91015 -19.29631,0 -21.95117,-4.61988 -7.99023,-13.9043 90.93763,-60.47611 66.10825,-201.01075 -40.2793,-227.98047 -3.44814,-0.87412 -3.44819,-0.87545 6.10547,-10.53906 11.71408,-11.84891 12.18543,-13.47185 5.86719,-20.22657 -4.96627,-5.30932 4.16495,-16.38888 11.81055,-14.33007 19.37055,5.21614 36.21969,-15.26311 27.66992,-33.630862 -2.87727,-6.181327 -27.27572,-30.581715 -33.45703,-33.458985 -3.44396,-1.603082 -6.96201,-2.313236 -10.3711,-2.28125 z M 206.56055,347.32812 c 19.73041,0 19.73187,7.4e-4 15.51953,4.13672 -2.31678,2.2748 -5.68619,6.09844 -7.48633,8.4961 -1.80014,2.39768 -4.79406,7.405 -6.6543,11.1289 -3.38226,6.77077 -3.38327,6.77095 -12.24609,-8.03906 -4.87457,-8.14549 -8.86328,-15.01474 -8.86328,-15.26562 0,-0.25088 8.87873,-0.45704 19.73047,-0.45704 z m 66.7539,32.43165 c 13.96601,0.7622 23.82903,13.31163 21.10938,27.80859 -0.67861,3.61727 -43.8999,4.59204 -44.85938,1.01172 -3.74449,-13.97254 6.40172,-27.95774 20.9043,-28.8125 0.96503,-0.0569 1.91464,-0.0586 2.8457,-0.008 z" /></svg>
