<?xml version="1.0" encoding="UTF-8" standalone="no"?>
<svg
   viewBox="0 0 512 512"
   style="height: 512px; width: 512px;"
   version="1.1"
   id="svg20"
   sodipodi:docname="icon_new_saved.svg"
   xml:space="preserve"
   inkscape:version="1.2.2 (732a01da63, 2022-12-09)"
   xmlns:inkscape="http://www.inkscape.org/namespaces/inkscape"
   xmlns:sodipodi="http://sodipodi.sourceforge.net/DTD/sodipodi-0.dtd"
   xmlns="http://www.w3.org/2000/svg"
   xmlns:svg="http://www.w3.org/2000/svg"><defs
     id="defs24"><rect
       x="108.91842"
       y="39.885617"
       width="285.33557"
       height="227.0412"
       id="rect3408" /><rect
       x="91.457628"
       y="26.847458"
       width="35.322034"
       height="24.881356"
       id="rect3398" /><rect
       x="75.169047"
       y="147.26997"
       width="365.1068"
       height="222.43902"
       id="rect8366" /><rect
       x="204.03027"
       y="193.29183"
       width="90.509669"
       height="102.78217"
       id="rect870" /><rect
       x="75.169047"
       y="147.26997"
       width="365.1068"
       height="222.43902"
       id="rect9898" /><rect
       x="75.169047"
       y="147.26997"
       width="365.1068"
       height="222.43902"
       id="rect10806" /><rect
       x="75.169047"
       y="147.26997"
       width="365.1068"
       height="222.43902"
       id="rect10864" /></defs><sodipodi:namedview
     id="namedview22"
     pagecolor="#ffffff"
     bordercolor="#000000"
     borderopacity="0.25"
     inkscape:showpageshadow="2"
     inkscape:pageopacity="0.0"
     inkscape:pagecheckerboard="0"
     inkscape:deskcolor="#d1d1d1"
     showgrid="false"
     inkscape:zoom="0.92187499"
     inkscape:cx="28.745763"
     inkscape:cy="252.20339"
     inkscape:window-width="1280"
     inkscape:window-height="730"
     inkscape:window-x="-6"
     inkscape:window-y="-6"
     inkscape:window-maximized="1"
     inkscape:current-layer="svg20"
     showguides="true"
     inkscape:lockguides="false" /><!-- react-empty: 6 --><g
     id="g22074"
     inkscape:label="new save"
     style="display:inline"><path
       style="fill:#ff0000;fill-opacity:0.3;stroke-width:0.560922"
       d="m 305.64563,436.27076 c -0.45768,-0.49095 -1.06726,-1.60988 -1.35466,-2.48649 -0.50141,-1.52953 -0.20351,-2.31617 7.3795,-19.48737 l 7.90199,-17.89351 1.95895,-0.75877 c 2.81929,-1.092 5.92543,0.25017 7.00098,3.02514 l 0.78979,2.0378 -7.65233,17.72706 -7.65234,17.72705 -2.12351,0.93849 c -2.25168,0.99517 -4.87154,0.64742 -6.24826,-0.82937 z m -61.80928,-65.7201 c -1.002,-2.83011 -0.58084,-4.51806 1.54748,-6.20172 1.85771,-1.46959 34.73945,-13.98575 36.24996,-13.79823 2.0781,0.25796 4.56794,2.98484 4.82573,5.28511 0.44672,3.98606 -0.41208,4.52243 -18.74371,11.70644 -9.23528,3.61922 -17.56029,6.63418 -18.49999,6.69987 -2.85926,0.19991 -4.36837,-0.83567 -5.37947,-3.69147 z m 149.3483,67.43986 c -1.21254,-1.572 -13.63634,-33.62623 -13.77466,-35.53953 -0.0677,-0.93597 0.10539,-1.96328 0.38461,-2.28289 0.27928,-0.3196 0.9322,-1.16103 1.45104,-1.86979 1.2922,-1.76525 4.23947,-2.08048 6.59777,-0.70567 1.66872,0.97281 2.51866,2.77127 8.44363,17.86614 3.62346,9.23145 6.64014,17.55254 6.70373,18.4913 0.18903,2.79135 -0.83658,4.3297 -3.60026,5.40018 -2.64867,1.02592 -4.71498,0.57316 -6.20586,-1.35974 z m -70.6932,-64.16486 c -17.70953,-12.92767 -26.41623,-34.01697 -23.17653,-56.13808 0.55525,-3.79132 1.25738,-5.83528 4.62023,-13.45024 4.4303,-10.0321 6.46692,-12.98998 13.27887,-19.28543 10.19347,-9.42058 25.79358,-15.40682 39.39241,-15.11606 9.10788,0.19472 12.45417,0.99749 22.32042,5.35455 10.0321,4.4303 12.98999,6.46689 19.28544,13.27887 9.42058,10.19346 15.4068,25.79357 15.11606,39.3924 -0.19472,9.10787 -0.99748,12.45418 -5.35453,22.32041 -3.35048,7.58693 -4.40469,9.51546 -6.7975,12.43532 -6.97698,8.51365 -14.52565,14.01446 -24.57169,17.90564 -10.08784,3.90738 -19.53689,4.93415 -30.20634,3.28235 -6.41565,-0.99326 -18.51586,-6.04438 -23.90684,-9.97973 z m 27.10867,-1.25278 c 8.19244,1.07797 14.2017,0.44961 21.89603,-2.28958 7.83181,-2.78812 13.97586,-7.08171 19.75709,-13.80665 2.91952,-3.3961 3.77211,-4.83102 6.43823,-10.83538 2.70139,-6.0822 3.14729,-7.54232 3.68542,-12.05105 0.99893,-8.36895 0.36292,-14.30492 -2.34882,-21.92218 -2.79052,-7.83847 -7.08986,-13.98811 -13.809,-19.75179 -3.32011,-2.84796 -4.9298,-3.81616 -10.56557,-6.35492 -8.66663,-3.90403 -15.45866,-4.9679 -24.81714,-3.88717 -4.75452,0.54906 -16.14942,4.96271 -20.03328,7.7596 -7.4405,5.35816 -11.85145,10.80909 -15.63575,19.32224 -4.99854,11.24508 -5.48649,21.62366 -1.55753,33.1386 3.3316,9.76423 9.31073,17.62759 18.08074,23.77859 4.00102,2.80613 13.13889,6.14036 18.90958,6.89969 z M 246.91371,284.62022 c -1.55552,-1.643 -1.91495,-3.93171 -0.95787,-6.09896 0.74427,-1.68535 1.34268,-2.20371 3.26194,-2.82562 l 2.35043,-0.7616 17.59687,7.94714 17.59686,7.94714 0.76128,1.96671 c 1.06733,2.75737 -0.34336,5.95182 -3.10028,7.02036 l -1.96635,0.76215 -17.35328,-7.53705 c -9.54435,-4.14526 -17.72969,-7.93437 -18.18961,-8.42025 z m 178.56842,78.8464 c -2.62985,-2.73148 -1.59349,-7.46827 1.93283,-8.83413 l 2.03838,-0.78955 17.93571,7.92063 17.93573,7.92064 0.78791,2.0342 c 1.17234,3.02666 -0.26018,5.98133 -3.39189,6.99613 l -2.32069,0.75198 -17.03861,-7.56338 c -9.3713,-4.15969 -17.41696,-7.95627 -17.87937,-8.43653 z M 323.3771,256.57367 c -1.3129,-0.89542 -14.26488,-33.23613 -14.45908,-36.10392 -0.18904,-2.79136 0.83655,-4.3297 3.60026,-5.40017 2.76788,-1.0721 4.56554,-0.62262 6.29498,1.574 1.29058,1.63922 13.64107,33.71153 13.74774,35.70073 0.12183,2.27258 -2.41539,5.00947 -4.95602,5.346 -1.14594,0.15179 -2.30096,0.14342 -2.56664,-0.0186 -0.26574,-0.16195 -1.01327,-0.65613 -1.66124,-1.09804 z m 103.46296,45.24323 c -1.59085,-1.72593 -1.76336,-4.32778 -0.44095,-6.65021 0.84744,-1.48819 3.16067,-2.56719 17.78143,-8.29402 9.244,-3.62079 17.57536,-6.63525 18.51414,-6.69884 2.79134,-0.18903 4.32968,0.83657 5.40016,3.60025 1.07211,2.76789 0.6226,4.56554 -1.57402,6.29498 -1.61869,1.27445 -33.70042,13.64091 -35.65635,13.74438 -1.74643,0.0924 -2.39604,-0.22985 -4.02441,-1.99654 z m -42.33229,-44.12396 c -0.46099,-0.48345 -1.07344,-1.5959 -1.36098,-2.47217 -0.49806,-1.51783 -0.16168,-2.42979 7.111,-19.27809 l 7.63371,-17.6849 2.25023,-1.02039 c 3.0275,-1.37287 6.07074,-0.16657 7.24806,2.87299 l 0.78793,2.0342 -7.92063,17.93572 -7.92063,17.93572 -1.83269,0.67871 c -2.06171,0.76353 -4.73914,0.31619 -5.99603,-1.00181 z"
       id="path18963" /><path
       style="display:none;fill:#41608e;fill-opacity:1;stroke:#41608e;stroke-width:16;stroke-dasharray:none;stroke-opacity:1"
       d="M 352,325.42373 252.20339,151.86441"
       id="path2542"
       inkscape:label="line2_us_dm" /><path
       style="display:none;fill:#d9d9d9;fill-opacity:1;stroke:#d9d9d9;stroke-width:16;stroke-dasharray:none;stroke-opacity:1"
       d="M 352,325.42373 252.20339,151.86441"
       id="path476"
       inkscape:label="line2_us_lm" /><path
       style="display:inline;fill:#808080;fill-opacity:1;stroke:#808080;stroke-width:16;stroke-dasharray:none;stroke-opacity:1"
       d="M 352,325.42373 252.20339,151.86441"
       id="path377"
       inkscape:label="line2" /><path
       style="fill:#808080;stroke:#808080;stroke-width:16;stroke-dasharray:none"
       d="M 156.20339,325.42373 256,151.86441"
       id="path478"
       inkscape:label="line1" /><path
       id="path18834"
       style="display:inline;opacity:1;fill:#71797e;fill-opacity:1;stroke:#000000;stroke-width:10;stroke-dasharray:none;stroke-opacity:1"
       d="m 255.99945,91.279775 a 65.007134,65.007134 0 0 0 -65.0066,65.006595 65.007134,65.007134 0 0 0 65.0066,65.0077 65.007134,65.007134 0 0 0 65.0077,-65.0077 65.007134,65.007134 0 0 0 -65.0077,-65.006595 z" /><path
       id="path18837"
       style="display:inline;opacity:1;fill:#d3d3d3;fill-opacity:1;stroke:#000000;stroke-width:10;stroke-dasharray:none;stroke-opacity:1"
       d="m 155.99953,262.19503 a 65.007134,65.007134 0 0 0 -65.0066,65.0066 65.007134,65.007134 0 0 0 65.0066,65.0077 65.007134,65.007134 0 0 0 65.0077,-65.0077 65.007134,65.007134 0 0 0 -65.0077,-65.0066 z"
       inkscape:label="path18837" /><path
       id="path18839"
       style="display:inline;opacity:1;fill:#d3d3d3;fill-opacity:1;stroke:#000000;stroke-width:10;stroke-dasharray:none;stroke-opacity:1"
       d="m 355.99953,262.19503 a 65.007134,65.007134 0 0 0 -65.0066,65.0066 65.007134,65.007134 0 0 0 65.0066,65.0077 65.007134,65.007134 0 0 0 65.0077,-65.0077 65.007134,65.007134 0 0 0 -65.0077,-65.0066 z"
       inkscape:label="new circ saved" /><path
       id="path21870"
       style="display:none;opacity:1;fill:#3d5e8d;fill-opacity:1;stroke:#1b3968;stroke-width:10;stroke-dasharray:none;stroke-opacity:1"
       d="m 355.99953,262.19503 a 65.007134,65.007134 0 0 0 -65.0066,65.0066 65.007134,65.007134 0 0 0 65.0066,65.0077 65.007134,65.007134 0 0 0 65.0077,-65.0077 65.007134,65.007134 0 0 0 -65.0077,-65.0066 z"
       inkscape:label="new circ unsaved dm" /><path
       id="path2545"
       style="display:none;opacity:1;fill:#f2f2f2;fill-opacity:1;stroke:#d9d9d9;stroke-width:10;stroke-dasharray:none;stroke-opacity:1"
       d="m 355.99953,262.19503 a 65.007134,65.007134 0 0 0 -65.0066,65.0066 65.007134,65.007134 0 0 0 65.0066,65.0077 65.007134,65.007134 0 0 0 65.0077,-65.0077 65.007134,65.007134 0 0 0 -65.0077,-65.0066 z"
       inkscape:label="new circ unsaved lm" /></g></svg>
