<?xml version="1.0" encoding="UTF-8" standalone="no"?>
<svg
   viewBox="0 0 512 512"
   style="height: 512px; width: 512px;"
   version="1.1"
   id="svg20"
   sodipodi:docname="icon_delete_trash1.svg"
   xml:space="preserve"
   inkscape:version="1.2.2 (732a01da63, 2022-12-09)"
   xmlns:inkscape="http://www.inkscape.org/namespaces/inkscape"
   xmlns:sodipodi="http://sodipodi.sourceforge.net/DTD/sodipodi-0.dtd"
   xmlns="http://www.w3.org/2000/svg"
   xmlns:svg="http://www.w3.org/2000/svg"><defs
     id="defs24"><rect
       x="75.169047"
       y="147.26997"
       width="365.1068"
       height="222.43902"
       id="rect8366" /><rect
       x="204.03027"
       y="193.29183"
       width="90.509669"
       height="102.78217"
       id="rect870" /><rect
       x="75.169047"
       y="147.26997"
       width="365.1068"
       height="222.43902"
       id="rect9898" /><rect
       x="75.169047"
       y="147.26997"
       width="365.1068"
       height="222.43902"
       id="rect10806" /><rect
       x="75.169047"
       y="147.26997"
       width="365.1068"
       height="222.43902"
       id="rect10864" /></defs><sodipodi:namedview
     id="namedview22"
     pagecolor="#ffffff"
     bordercolor="#000000"
     borderopacity="0.25"
     inkscape:showpageshadow="2"
     inkscape:pageopacity="0.0"
     inkscape:pagecheckerboard="0"
     inkscape:deskcolor="#d1d1d1"
     showgrid="false"
     inkscape:zoom="0.4609375"
     inkscape:cx="235.38983"
     inkscape:cy="187.66102"
     inkscape:window-width="1280"
     inkscape:window-height="730"
     inkscape:window-x="-6"
     inkscape:window-y="-6"
     inkscape:window-maximized="1"
     inkscape:current-layer="svg20" /><!-- react-empty: 6 --><g
     id="g17014"
     style="stroke:#000000;stroke-width:8.4;stroke-dasharray:none;stroke-opacity:1"
     transform="matrix(0.90987755,0,0,0.90987755,23.071347,19.395608)"
     inkscape:label="trash"><path
       style="display:inline;fill:#999999;stroke:#000000;stroke-width:8.4;stroke-dasharray:none;stroke-opacity:1"
       d="m 140.07013,147.33768 c 0.17677,-16.03355 0.25614,-17.06132 1.43978,-18.64536 1.81023,-2.42259 3.97343,-3.88075 6.69279,-4.51144 1.31081,-0.30401 17.32885,-0.55927 35.59566,-0.56724 l 33.21236,-0.0145 0.20418,-7.03725 c 0.17775,-6.12616 0.35687,-7.14875 1.38356,-7.89846 1.75915,-1.28457 73.04396,-1.28457 74.80309,0 1.0267,0.74971 1.20582,1.7723 1.38357,7.89846 l 0.20416,7.03725 33.21238,0.0145 c 18.26681,0.008 34.28485,0.26323 35.59565,0.56724 2.71937,0.63069 4.88257,2.08885 6.69279,4.51144 1.18363,1.58404 1.263,2.61181 1.43979,18.64536 l 0.18709,16.9689 H 256 139.88302 Z"
       id="path17006"
       inkscape:label="deckel" /><path
       style="display:inline;fill:#999999;stroke:#000000;stroke-width:8.4;stroke-dasharray:none;stroke-opacity:1"
       d="m 178.83421,411.12096 c -5.84134,-1.79489 -10.40595,-6.90581 -11.24244,-12.58797 -0.26526,-1.80191 -10.62628,-217.42363 -10.62628,-221.14218 0,-0.7087 15.2694,-0.83788 99.03451,-0.83788 88.28192,0 99.03452,0.10045 99.03452,0.92515 0,4.23499 -10.39058,219.81402 -10.67238,221.42581 -0.77366,4.42501 -4.08898,8.79618 -8.46619,11.16247 l -2.43029,1.31379 -76.55429,0.10438 c -42.10486,0.0574 -77.23957,-0.10619 -78.07716,-0.36357 z"
       id="path16598" /><path
       id="rect16707"
       style="fill:#b3b3b3;fill-opacity:1;stroke:#000000;stroke-width:8.4;stroke-dasharray:none;stroke-opacity:1"
       d="m 255.99999,201.69381 c -3.58608,0 -7.17294,0.38504 -8.82124,1.15464 -4.74565,2.21575 -4.51215,-2.33166 -4.51215,88.56983 0,49.15617 0.26348,82.70375 0.65877,83.86555 0.36236,1.065 1.36735,2.67583 2.23577,3.57991 1.43018,1.48891 2.41476,1.64372 10.43885,1.64372 8.02411,0 9.00866,-0.15481 10.43885,-1.64372 0.86844,-0.90408 1.8734,-2.51491 2.23577,-3.57991 0.39526,-1.16179 0.65877,-34.70938 0.65877,-83.86555 0,-90.90149 0.23349,-86.35408 -4.51215,-88.56983 -1.6483,-0.7696 -5.23516,-1.15464 -8.82124,-1.15464 z m -50.5315,0.18908 c -8.21282,-0.30153 -11.4843,0.82648 -13.13711,4.52278 -1.19832,2.67995 -1.30984,167.03385 -0.11504,169.64456 1.78724,3.90529 3.21747,4.421 12.28205,4.43958 7.52788,0.0155 8.71282,-0.16735 10.33507,-1.5933 1.00777,-0.88579 2.17111,-2.9158 2.58546,-4.51017 0.52137,-2.00613 0.68685,-28.13604 0.54145,-84.85128 -0.22513,-87.80971 -0.0505,-83.72019 -3.64581,-86.31601 -0.92747,-0.66962 -4.21303,-1.16606 -8.84605,-1.33616 z m 101.06299,0 c -4.63304,0.1701 -7.9186,0.66654 -8.84605,1.33616 -3.59537,2.59581 -3.4207,-1.49371 -3.64581,86.31601 -0.14543,56.71522 0.0201,82.84516 0.54146,84.85128 1.36657,5.25834 3.19615,6.12342 12.92052,6.10347 6.99464,-0.0143 8.7697,-0.25677 10.00117,-1.37145 0.82331,-0.74525 1.84971,-2.12599 2.28089,-3.06813 1.19478,-2.61072 1.08327,-166.96463 -0.11505,-169.64456 -1.65281,-3.69631 -4.92429,-4.8243 -13.13711,-4.52278 z" /></g></svg>
