<?xml version="1.0" encoding="UTF-8" standalone="no"?>
<svg
   viewBox="0 0 512 512"
   style="height: 512px; width: 512px;"
   version="1.1"
   id="svg20"
   sodipodi:docname="icon_help.svg"
   xml:space="preserve"
   inkscape:version="1.2.2 (732a01da63, 2022-12-09)"
   xmlns:inkscape="http://www.inkscape.org/namespaces/inkscape"
   xmlns:sodipodi="http://sodipodi.sourceforge.net/DTD/sodipodi-0.dtd"
   xmlns="http://www.w3.org/2000/svg"
   xmlns:svg="http://www.w3.org/2000/svg"><defs
     id="defs24"><rect
       x="108.91842"
       y="39.885617"
       width="285.33557"
       height="227.0412"
       id="rect3408" /><rect
       x="91.457628"
       y="26.847458"
       width="35.322034"
       height="24.881356"
       id="rect3398" /><rect
       x="75.169047"
       y="147.26997"
       width="365.1068"
       height="222.43902"
       id="rect8366" /><rect
       x="204.03027"
       y="193.29183"
       width="90.509669"
       height="102.78217"
       id="rect870" /><rect
       x="75.169047"
       y="147.26997"
       width="365.1068"
       height="222.43902"
       id="rect9898" /><rect
       x="75.169047"
       y="147.26997"
       width="365.1068"
       height="222.43902"
       id="rect10806" /><rect
       x="75.169047"
       y="147.26997"
       width="365.1068"
       height="222.43902"
       id="rect10864" /></defs><sodipodi:namedview
     id="namedview22"
     pagecolor="#ffffff"
     bordercolor="#000000"
     borderopacity="0.25"
     inkscape:showpageshadow="2"
     inkscape:pageopacity="0.0"
     inkscape:pagecheckerboard="0"
     inkscape:deskcolor="#d1d1d1"
     showgrid="false"
     inkscape:zoom="0.65186406"
     inkscape:cx="126.56013"
     inkscape:cy="155.70731"
     inkscape:window-width="1280"
     inkscape:window-height="730"
     inkscape:window-x="-6"
     inkscape:window-y="-6"
     inkscape:window-maximized="1"
     inkscape:current-layer="svg20"
     showguides="false"
     inkscape:lockguides="false" /><!-- react-empty: 6 --><path
     style="display:inline;fill:#000000;stroke-width:0.202782"
     d="m 246.53331,463.47226 c -33.18806,-1.65452 -64.34069,-10.6343 -92.68928,-26.71778 -13.01541,-7.38425 -24.46437,-15.61108 -36.29792,-26.08246 -3.76087,-3.32797 -13.7118,-13.33747 -17.05458,-17.155 -15.162383,-17.3157 -26.901399,-35.89721 -35.614299,-56.37329 -17.43353,-40.9703 -21.14924,-87.23339 -10.49684,-130.69276 7.32144,-29.86982 21.42146,-58.02509 41.023004,-81.91571 4.399994,-5.36277 7.845325,-9.13819 13.622775,-14.92796 6.97355,-6.98842 11.33821,-10.915678 18.05068,-16.241731 43.86358,-34.803865 99.1395,-50.257011 155.02655,-43.339817 44.56694,5.516092 86.56821,25.797146 118.80355,57.366398 14.53718,14.23679 25.9143,28.95939 35.82637,46.36123 14.40526,25.29019 23.36722,53.8233 26.04183,82.91205 0.67177,7.3062 0.80121,10.4345 0.80121,19.36565 0,10.82112 -0.37339,16.99574 -1.61248,26.66578 -5.02169,39.18948 -21.19227,76.07195 -46.72045,106.56175 -5.7421,6.85815 -15.53465,16.93003 -21.71152,22.33091 -21.27236,18.59988 -44.37304,32.05552 -70.2672,40.92906 -16.9883,5.82164 -34.25868,9.30605 -52.82125,10.65707 -5.15907,0.37547 -18.90709,0.54603 -23.91015,0.29661 z m 21.37538,-26.76432 c 28.04946,-1.96838 53.86079,-9.72581 77.74388,-23.36545 21.69471,-12.38985 40.30035,-28.86014 55.57786,-49.19922 16.75483,-22.30587 28.44091,-49.41238 33.14591,-76.88382 3.59086,-20.96624 3.62748,-40.9157 0.11342,-61.77148 -5.12685,-30.42758 -18.16603,-59.20219 -37.79645,-83.40844 -8.11335,-10.00455 -18.07179,-19.86491 -28.10354,-27.82674 -20.21435,-16.043376 -43.04312,-27.371827 -67.93185,-33.710186 -30.07199,-7.658371 -62.26316,-7.374929 -92.32618,0.812927 -8.56952,2.333964 -18.65523,5.978224 -26.98487,9.750414 -25.86583,11.713695 -48.88308,29.639665 -66.73777,51.975765 -17.287342,21.62637 -29.377874,46.81368 -35.282837,73.50213 -5.743712,25.95966 -5.743712,52.93481 0,78.89447 3.006244,13.58722 7.943137,27.61539 14.199317,40.34734 12.11569,24.65662 30.01617,46.55268 51.90301,63.48829 22.46998,17.38681 48.90413,29.30457 76.65145,34.55804 8.27578,1.56687 16.92247,2.59175 25.65188,3.04049 4.07116,0.20927 16.00371,0.0883 20.17677,-0.20453 z m -31.53254,-79.59022 v -22.81293 h 22.91432 22.91432 v 22.81293 22.81293 h -22.91432 -22.91432 z m 8.1e-4,-52.46974 c 0.001,-11.44125 0.33723,-15.84917 1.73975,-22.81488 2.98855,-14.84285 8.76593,-24.40863 22.96607,-38.02562 3.27793,-3.14331 7.29465,-6.62018 14.81851,-12.82689 14.3526,-11.83996 21.01104,-18.0307 23.60969,-21.95133 2.06616,-3.11723 3.76733,-7.16564 4.62986,-11.01796 0.41143,-1.83756 0.47131,-2.64596 0.47131,-6.36339 0,-4.64179 -0.17457,-5.87963 -1.35835,-9.63212 -3.02056,-9.57477 -11.41091,-17.9991 -21.95069,-22.03955 -2.50733,-0.96119 -6.58324,-1.98483 -10.07782,-2.53096 -4.01145,-0.62691 -13.54758,-0.67796 -17.30855,-0.0927 -10.82034,1.68391 -19.58887,6.05081 -26.36467,13.13014 -6.23777,6.51719 -10.53137,14.93404 -13.58974,26.64026 -0.40794,1.56142 -0.8015,2.89685 -0.87459,2.96763 -0.0731,0.0708 -1.45603,-0.0387 -3.07322,-0.24337 -2.9871,-0.37799 -15.44393,-1.90975 -32.07613,-3.94425 -5.05446,-0.61828 -9.40663,-1.17164 -9.67148,-1.22968 -0.47358,-0.10378 -0.47925,-0.13307 -0.34221,-1.76826 1.12303,-13.40031 5.65975,-26.1142 13.09206,-36.68971 6.172,-8.78219 15.38307,-17.50182 24.41628,-23.11356 12.0679,-7.497 25.55089,-11.75271 42.70444,-13.47902 4.41296,-0.44412 17.80686,-0.50456 22.81293,-0.10295 21.11981,1.69434 37.80294,7.39654 51.60793,17.63931 9.47856,7.03274 17.72449,16.34802 22.87806,25.84498 5.21291,9.60629 7.85274,20.87448 7.47054,31.88828 -0.47757,13.76223 -5.14459,25.36223 -14.93008,37.10904 -6.39044,7.6713 -16.67627,17.5581 -30.0188,28.85422 -12.66286,10.7207 -18.85143,16.88753 -21.77234,21.69585 -3.21017,5.28453 -4.51231,11.82464 -4.7123,23.668 -0.0565,3.3459 -0.14493,6.28877 -0.19649,6.53971 l -0.0938,0.45626 h -22.40349 -22.40349 z"
     id="path2757"
     inkscape:label="questionmark" /></svg>
