<?xml version="1.0" encoding="UTF-8" standalone="no"?>
<svg
   viewBox="0 0 512 512"
   style="height: 512px; width: 512px;"
   version="1.1"
   id="svg20"
   sodipodi:docname="icon_arrow_lines.svg"
   xml:space="preserve"
   inkscape:version="1.2.2 (732a01da63, 2022-12-09)"
   xmlns:inkscape="http://www.inkscape.org/namespaces/inkscape"
   xmlns:sodipodi="http://sodipodi.sourceforge.net/DTD/sodipodi-0.dtd"
   xmlns="http://www.w3.org/2000/svg"
   xmlns:svg="http://www.w3.org/2000/svg"><defs
     id="defs24"><rect
       x="108.91842"
       y="39.885617"
       width="285.33557"
       height="227.0412"
       id="rect3408" /><rect
       x="91.457628"
       y="26.847458"
       width="35.322034"
       height="24.881356"
       id="rect3398" /><rect
       x="75.169047"
       y="147.26997"
       width="365.1068"
       height="222.43902"
       id="rect8366" /><rect
       x="204.03027"
       y="193.29183"
       width="90.509669"
       height="102.78217"
       id="rect870" /><rect
       x="75.169047"
       y="147.26997"
       width="365.1068"
       height="222.43902"
       id="rect9898" /><rect
       x="75.169047"
       y="147.26997"
       width="365.1068"
       height="222.43902"
       id="rect10806" /><rect
       x="75.169047"
       y="147.26997"
       width="365.1068"
       height="222.43902"
       id="rect10864" /></defs><sodipodi:namedview
     id="namedview22"
     pagecolor="#ffffff"
     bordercolor="#000000"
     borderopacity="0.25"
     inkscape:showpageshadow="2"
     inkscape:pageopacity="0.0"
     inkscape:pagecheckerboard="0"
     inkscape:deskcolor="#d1d1d1"
     showgrid="false"
     inkscape:zoom="0.65186406"
     inkscape:cx="98.947011"
     inkscape:cy="155.70731"
     inkscape:window-width="1280"
     inkscape:window-height="730"
     inkscape:window-x="-6"
     inkscape:window-y="-6"
     inkscape:window-maximized="1"
     inkscape:current-layer="svg20"
     showguides="false"
     inkscape:lockguides="false" /><!-- react-empty: 6 --><path
     style="display:inline;fill:#000000;fill-opacity:1;stroke-width:0.354585"
     d="m 276.72268,75.000403 c 0.0267,50.785847 14.3262,108.303677 38.38243,154.388167 1.33743,2.56211 3.30107,6.34999 4.36364,8.41752 10.8509,21.1133 29.95718,47.54532 49.88122,69.00669 5.44131,5.86117 5.58399,5.96002 6.45529,4.47288 0.31653,-0.54025 1.35614,-2.11001 2.31024,-3.48835 0.9541,-1.37835 6.12167,-8.95029 11.4835,-16.82654 5.36182,-7.87624 9.94042,-14.52417 10.17469,-14.77314 0.33741,-0.35861 1.00154,0.79466 3.19563,5.54918 1.52332,3.30102 3.59004,7.77401 4.59269,9.93999 5.54178,11.97158 7.59544,16.41278 8.85688,19.1536 2.74739,5.96947 7.22259,15.66656 9.91333,21.48069 1.50359,3.24895 3.36399,7.27658 4.13421,8.95029 0.77023,1.67369 4.00469,8.68177 7.1877,15.57349 3.18301,6.89172 6.34283,13.73869 7.02184,15.21549 2.12624,4.62444 7.2741,15.73937 9.43364,20.36851 2.51369,5.38827 2.51047,5.07829 0.0505,4.86067 -11.17368,-0.98849 -19.24343,-1.68373 -24.67124,-2.12553 -3.57338,-0.29085 -9.34171,-0.77546 -12.81851,-1.0769 -19.65369,-1.70397 -37.21209,-3.2043 -48.28891,-4.12619 -15.33975,-1.27668 -25.43666,-2.144 -31.0805,-2.66983 -3.0905,-0.28794 -7.15994,-0.63262 -9.0432,-0.76596 -1.88327,-0.13333 -3.42412,-0.30255 -3.42412,-0.37605 0,-0.0736 0.52539,-0.89723 1.16751,-1.83051 0.64214,-0.93329 2.64534,-3.8718 4.45156,-6.53003 1.80622,-2.65824 3.83862,-5.63869 4.51644,-6.62322 2.1991,-3.19416 15.34525,-22.54334 15.58206,-22.93444 0.12645,-0.20886 -2.48989,-3.18931 -5.81408,-6.62322 -39.13929,-40.43109 -68.78405,-88.12078 -86.83516,-139.69222 -0.94767,-2.70747 -1.80357,-4.92266 -1.90199,-4.92266 -0.0985,0 -0.9543,2.21519 -1.90199,4.92266 -18.0511,51.57144 -47.69585,99.26113 -86.83515,139.69222 -3.3242,3.43391 -5.94053,6.41436 -5.81408,6.62322 0.2368,0.3911 13.38296,19.74028 15.58206,22.93444 0.67782,0.98453 2.71022,3.96498 4.51643,6.62322 1.80623,2.65823 3.80943,5.59674 4.45157,6.53003 0.64213,0.93328 1.16751,1.75702 1.16751,1.83051 0,0.0736 -1.54085,0.24272 -3.42412,0.37605 -1.88327,0.13334 -5.95271,0.47802 -9.0432,0.76596 -5.64383,0.52583 -15.74075,1.39315 -31.08049,2.66983 -11.07683,0.92189 -28.63522,2.42222 -48.288932,4.12619 -3.4768,0.30144 -9.245126,0.78605 -12.818506,1.0769 -5.427814,0.4418 -13.497577,1.13704 -24.671246,2.12553 -2.459888,0.21762 -2.463121,0.5276 0.05058,-4.86067 2.15955,-4.62914 7.307396,-15.74407 9.433651,-20.36851 0.678998,-1.4768 3.838813,-8.32377 7.021842,-15.21549 3.182993,-6.89172 6.417473,-13.8998 7.187672,-15.57349 0.770234,-1.67371 2.63064,-5.70134 4.134234,-8.95029 2.690727,-5.81413 7.165933,-15.51122 9.913303,-21.48069 1.26145,-2.74082 3.31512,-7.18202 8.856902,-19.1536 1.00265,-2.16598 3.06937,-6.63897 4.59271,-9.93999 2.19407,-4.75452 2.85817,-5.90779 3.1956,-5.54918 0.23428,0.24897 4.81288,6.8969 10.1747,14.77314 5.36182,7.87625 10.52939,15.44819 11.4835,16.82654 0.9541,1.37834 1.9937,2.9481 2.31023,3.48835 0.87132,1.48714 1.01399,1.38829 6.45531,-4.47288 19.92402,-21.46137 39.03031,-47.89339 49.88121,-69.00669 1.06257,-2.06753 3.02622,-5.85541 4.36365,-8.41752 24.05623,-46.08449 38.35573,-103.60232 38.38242,-154.388167 l 0.002,-4.385641 h 20.72034 20.72033 l 0.002,4.385641 z"
     id="path919"
     inkscape:label="arrows_lines" /></svg>
