<?xml version="1.0" encoding="UTF-8" standalone="no"?>
<svg
   viewBox="0 0 512 512"
   style="height: 512px; width: 512px;"
   version="1.1"
   id="svg20"
   sodipodi:docname="icon_settings.svg"
   xml:space="preserve"
   inkscape:version="1.2.2 (732a01da63, 2022-12-09)"
   xmlns:inkscape="http://www.inkscape.org/namespaces/inkscape"
   xmlns:sodipodi="http://sodipodi.sourceforge.net/DTD/sodipodi-0.dtd"
   xmlns="http://www.w3.org/2000/svg"
   xmlns:svg="http://www.w3.org/2000/svg"><defs
     id="defs24"><rect
       x="108.91842"
       y="39.885617"
       width="285.33557"
       height="227.0412"
       id="rect3408" /><rect
       x="91.457628"
       y="26.847458"
       width="35.322034"
       height="24.881356"
       id="rect3398" /><rect
       x="75.169047"
       y="147.26997"
       width="365.1068"
       height="222.43902"
       id="rect8366" /><rect
       x="204.03027"
       y="193.29183"
       width="90.509669"
       height="102.78217"
       id="rect870" /><rect
       x="75.169047"
       y="147.26997"
       width="365.1068"
       height="222.43902"
       id="rect9898" /><rect
       x="75.169047"
       y="147.26997"
       width="365.1068"
       height="222.43902"
       id="rect10806" /><rect
       x="75.169047"
       y="147.26997"
       width="365.1068"
       height="222.43902"
       id="rect10864" /></defs><sodipodi:namedview
     id="namedview22"
     pagecolor="#ffffff"
     bordercolor="#000000"
     borderopacity="0.25"
     inkscape:showpageshadow="2"
     inkscape:pageopacity="0.0"
     inkscape:pagecheckerboard="0"
     inkscape:deskcolor="#d1d1d1"
     showgrid="false"
     inkscape:zoom="0.65186406"
     inkscape:cx="98.947011"
     inkscape:cy="155.70731"
     inkscape:window-width="1280"
     inkscape:window-height="730"
     inkscape:window-x="-6"
     inkscape:window-y="-6"
     inkscape:window-maximized="1"
     inkscape:current-layer="svg20"
     showguides="false"
     inkscape:lockguides="false" /><!-- react-empty: 6 --><path
     style="display:inline;fill:#000000;stroke-width:0.527407"
     d="m 211.17137,461.09009 c -2.34838,-0.93723 -4.53937,-2.96436 -5.43725,-5.03062 -0.52478,-1.2076 -2.38869,-12.71309 -4.60091,-28.40034 -2.04533,-14.50368 -3.83867,-26.96367 -3.9852,-27.68885 -0.22101,-1.09376 -1.40844,-1.85795 -6.96585,-4.48296 -8.00833,-3.7827 -17.14096,-9.13096 -23.37166,-13.68691 l -4.54666,-3.32458 -26.05332,10.46103 c -22.1413,8.89027 -26.47223,10.46441 -28.84321,10.48353 -2.93259,0.0237 -6.01406,-1.18138 -7.553993,-2.95399 -1.095181,-1.26066 -42.471916,-72.93285 -43.180592,-74.7968 -0.696678,-1.83239 -0.683419,-5.62219 0.02622,-7.50046 0.308528,-0.81658 1.145749,-2.09786 1.860491,-2.84729 0.714747,-0.74941 11.019982,-8.93741 22.900517,-18.19553 l 21.600997,-16.83295 -0.38743,-4.48296 c -0.50034,-5.78947 -0.50034,-25.85495 0,-31.64441 l 0.38743,-4.48296 -21.600997,-16.83296 c -11.880535,-9.25812 -22.18577,-17.4461 -22.900517,-18.19553 -1.753401,-1.83848 -2.421451,-3.79577 -2.421451,-7.09456 0,-2.49901 0.418169,-3.48951 4.383125,-10.38196 31.634618,-54.99185 39.115198,-67.61779 40.84264,-68.93537 1.41513,-1.07936 2.58863,-1.45115 5.08141,-1.60989 3.1737,-0.20209 3.79111,0.0138 29.58924,10.34637 l 26.3479,10.55276 1.86001,-1.46925 c 4.62206,-3.65103 15.75364,-10.44896 23.27848,-14.21589 4.52831,-2.26688 8.51999,-4.21717 8.87042,-4.33398 0.41681,-0.13894 1.99358,-9.78239 4.56006,-27.889115 2.81905,-19.888682 4.21435,-28.302495 4.95854,-29.900506 0.63967,-1.373558 1.88368,-2.785053 3.2538,-3.691848 l 2.21819,-1.468083 43.98103,-0.14076 c 42.21537,-0.135106 44.07189,-0.100566 46.24406,0.860289 2.23456,0.98846 4.62189,3.545348 5.24974,5.622619 0.17755,0.587442 2.10353,13.507949 4.27996,28.712235 3.75328,26.219999 4.20286,28.462109 5.71265,28.490079 0.23979,0.004 3.69059,1.63698 7.66842,3.62787 7.94651,3.9772 14.35209,7.81444 21.08044,12.62816 l 4.39673,3.14558 26.02066,-10.48788 c 22.01945,-8.87516 26.43559,-10.48788 28.71907,-10.48788 2.82299,0 5.92723,1.23364 7.48972,2.97647 0.85084,0.94903 40.41037,69.14023 42.59991,73.43212 1.44789,2.83809 1.4772,7.59575 0.0611,9.91818 -1.28231,2.10299 -3.44358,3.87602 -26.88498,22.05534 l -19.04189,14.76739 0.28284,2.37333 c 1.32293,11.10085 1.32293,24.76283 0,35.86367 l -0.28284,2.37333 19.04189,14.76739 c 23.44141,18.17933 25.60268,19.95234 26.88498,22.05534 1.50108,2.46183 1.38936,7.07183 -0.24879,10.26586 -0.70173,1.36822 -10.40634,18.2703 -21.56578,37.56021 -15.33981,26.51598 -20.75917,35.45278 -22.21335,36.63103 -1.56786,1.27034 -2.53492,1.5974 -5.23088,1.76908 -3.26384,0.20783 -3.65217,0.0716 -29.46819,-10.33499 l -26.16073,-10.54559 -4.13439,2.93136 c -6.78537,4.81097 -14.64869,9.48941 -22.32162,13.28072 -3.97625,1.96472 -7.5018,3.66352 -7.83455,3.7751 -0.37369,0.12531 -2.11952,10.78407 -4.56628,27.87847 -2.1787,15.22159 -4.10653,28.15624 -4.28409,28.74368 -0.61531,2.03579 -2.98906,4.61574 -5.14953,5.59686 -2.06534,0.93791 -4.28553,0.98476 -45.68192,0.96398 -27.304,-0.0137 -43.99631,-0.21552 -44.81383,-0.54178 z m 61.49832,-135.13948 c 14.19234,-3.59468 25.34931,-10.08714 35.39919,-20.59949 18.5195,-19.37174 24.59295,-46.86079 16.01217,-72.47272 -6.62517,-19.77479 -22.39109,-36.22968 -41.98921,-43.82412 -27.45425,-10.63876 -58.01155,-3.7373 -78.28583,17.68106 -22.93653,24.23086 -26.11069,61.16437 -7.64098,88.90805 9.47635,14.23459 24.04337,24.93412 40.10379,29.45641 7.9842,2.24818 11.04089,2.59166 21.29861,2.39333 8.32935,-0.16106 10.53915,-0.38676 15.10226,-1.54252 z"
     id="path3080"
     inkscape:label="settings" /></svg>
