<?xml version="1.0" encoding="UTF-8" standalone="no"?>
<svg
   viewBox="0 0 512 512"
   style="height: 512px; width: 512px;"
   version="1.1"
   id="svg20"
   sodipodi:docname="icon_copyfen.svg"
   xml:space="preserve"
   inkscape:version="1.2.2 (732a01da63, 2022-12-09)"
   xmlns:inkscape="http://www.inkscape.org/namespaces/inkscape"
   xmlns:sodipodi="http://sodipodi.sourceforge.net/DTD/sodipodi-0.dtd"
   xmlns="http://www.w3.org/2000/svg"
   xmlns:svg="http://www.w3.org/2000/svg"><defs
     id="defs24"><rect
       x="108.91842"
       y="39.885617"
       width="285.33557"
       height="227.0412"
       id="rect3408" /><rect
       x="91.457628"
       y="26.847458"
       width="35.322034"
       height="24.881356"
       id="rect3398" /><rect
       x="75.169047"
       y="147.26997"
       width="365.1068"
       height="222.43902"
       id="rect8366" /><rect
       x="204.03027"
       y="193.29183"
       width="90.509669"
       height="102.78217"
       id="rect870" /><rect
       x="75.169047"
       y="147.26997"
       width="365.1068"
       height="222.43902"
       id="rect9898" /><rect
       x="75.169047"
       y="147.26997"
       width="365.1068"
       height="222.43902"
       id="rect10806" /><rect
       x="75.169047"
       y="147.26997"
       width="365.1068"
       height="222.43902"
       id="rect10864" /></defs><sodipodi:namedview
     id="namedview22"
     pagecolor="#ffffff"
     bordercolor="#000000"
     borderopacity="0.25"
     inkscape:showpageshadow="2"
     inkscape:pageopacity="0.0"
     inkscape:pagecheckerboard="0"
     inkscape:deskcolor="#d1d1d1"
     showgrid="false"
     inkscape:zoom="0.65186406"
     inkscape:cx="98.947011"
     inkscape:cy="155.70731"
     inkscape:window-width="1280"
     inkscape:window-height="730"
     inkscape:window-x="-6"
     inkscape:window-y="-6"
     inkscape:window-maximized="1"
     inkscape:current-layer="svg20"
     showguides="false"
     inkscape:lockguides="false" /><!-- react-empty: 6 --><g
     id="g1035"
     inkscape:label="copy_fen"
     style="display:inline;fill:#000000"><path
       style="display:inline;fill:#000000;stroke-width:0.285226"
       d="m 117.3096,430.82064 c -2.69451,-0.57773 -4.40668,-1.20788 -7.4819,-2.75372 -3.03505,-1.52564 -4.31228,-2.47621 -7.54819,-5.61771 -4.6235,-4.48857 -7.269419,-8.86584 -8.87718,-14.68587 l -0.764743,-2.76835 V 285.7707 c 0,-115.39034 0.01713,-119.29767 0.532541,-121.50609 1.461905,-6.2639 4.374871,-11.21901 9.444502,-16.0656 4.08728,-3.90747 8.50109,-6.39045 13.94413,-7.84425 l 2.31959,-0.61955 h 109.09878 109.09878 l 2.56507,0.65287 c 3.06585,0.78034 7.75825,2.9641 10.37329,4.82754 1.04136,0.74205 3.00173,2.46595 4.35639,3.83088 4.11056,4.14172 6.87841,8.89866 8.32,14.29903 l 0.62601,2.34521 V 285.7707 405.85068 l -0.79555,2.53861 c -3.37861,10.78119 -11.30683,18.71885 -22.0225,22.04873 l -2.56702,0.79773 -109.09879,0.0523 c -104.58988,0.0502 -109.19899,0.0308 -111.52321,-0.46745 z m 215.94222,-27.20237 c 0.69138,-0.36501 1.64212,-1.21036 2.11274,-1.87852 l 0.85568,-1.2149 V 285.50783 170.49079 l -0.78829,-1.1375 c -0.43356,-0.62563 -1.33203,-1.44893 -1.99658,-1.82957 l -1.20829,-0.69208 -103.64329,-0.0729 c -74.86742,-0.0526 -103.97009,0.0145 -104.82039,0.2418 -1.72322,0.46065 -3.45537,2.3648 -3.85769,4.24076 -0.22592,1.05339 -0.3143,33.249 -0.3143,114.49163 0,124.61185 -0.14763,114.89958 1.77484,116.75903 0.51414,0.49725 1.38404,1.09839 1.9331,1.33587 0.88516,0.3828 12.76675,0.433 104.84684,0.4429 l 103.84855,0.0112 z m 38.19213,-32.35704 -1.13925,-1.13925 v -12.33182 -12.33181 l 1.10736,-1.10735 1.10732,-1.10734 3.24237,-0.002 c 4.17199,-0.002 6.24253,-0.35357 8.43269,-1.4313 2.64821,-1.30313 4.47856,-3.542 5.47419,-6.69598 0.40608,-1.28627 0.45896,-11.7616 0.53928,-106.81698 0.0629,-74.42653 -0.003,-106.18639 -0.22026,-108.09859 -0.19226,-1.68299 -0.56753,-3.27171 -0.99158,-4.19796 -1.39504,-3.04712 -4.49327,-5.43494 -7.88703,-6.07857 -2.04479,-0.38777 -189.58337,-0.38099 -191.66974,0.007 -2.2917,0.42611 -4.95461,1.88267 -6.21905,3.40173 -2.37454,2.85268 -2.85186,4.7264 -2.86562,11.24919 l -0.0101,4.81114 -1.10734,1.10735 -1.10735,1.10735 h -12.33185 -12.33182 l -1.10734,-1.10735 -1.10735,-1.10735 0.01,-7.37811 c 0.0111,-8.1554 0.23699,-10.09057 1.71649,-14.69833 1.87806,-5.84906 5.31534,-11.235336 10.19024,-15.968309 5.21739,-5.065484 10.35659,-7.950462 17.8278,-10.007965 l 2.34339,-0.645348 h 101.82546 101.82553 l 2.85226,0.773234 c 3.05399,0.82792 5.55,1.775479 8.19818,3.112271 9.50126,4.796214 17.06142,13.962881 19.92112,24.154227 1.46067,5.20552 1.39093,-0.66937 1.39643,117.6411 0.006,121.84014 0.1414,112.95271 -1.81668,118.93022 -4.28118,13.06928 -14.57999,22.67733 -27.96034,26.08497 -2.59604,0.66116 -3.56393,0.74607 -9.93718,0.87174 l -7.06096,0.13922 z"
       id="path923"
       inkscape:label="copy_fen_new" /></g></svg>
