<?xml version="1.0" encoding="UTF-8" standalone="no"?>
<svg
   viewBox="0 0 512 512"
   style="height: 512px; width: 512px;"
   version="1.1"
   id="svg20"
   sodipodi:docname="icon_zoom_out.svg"
   xml:space="preserve"
   inkscape:version="1.2.2 (732a01da63, 2022-12-09)"
   xmlns:inkscape="http://www.inkscape.org/namespaces/inkscape"
   xmlns:sodipodi="http://sodipodi.sourceforge.net/DTD/sodipodi-0.dtd"
   xmlns="http://www.w3.org/2000/svg"
   xmlns:svg="http://www.w3.org/2000/svg"><defs
     id="defs24"><rect
       x="108.91842"
       y="39.885617"
       width="285.33557"
       height="227.0412"
       id="rect3408" /><rect
       x="91.457628"
       y="26.847458"
       width="35.322034"
       height="24.881356"
       id="rect3398" /><rect
       x="75.169047"
       y="147.26997"
       width="365.1068"
       height="222.43902"
       id="rect8366" /><rect
       x="204.03027"
       y="193.29183"
       width="90.509669"
       height="102.78217"
       id="rect870" /><rect
       x="75.169047"
       y="147.26997"
       width="365.1068"
       height="222.43902"
       id="rect9898" /><rect
       x="75.169047"
       y="147.26997"
       width="365.1068"
       height="222.43902"
       id="rect10806" /><rect
       x="75.169047"
       y="147.26997"
       width="365.1068"
       height="222.43902"
       id="rect10864" /></defs><sodipodi:namedview
     id="namedview22"
     pagecolor="#ffffff"
     bordercolor="#000000"
     borderopacity="0.25"
     inkscape:showpageshadow="2"
     inkscape:pageopacity="0.0"
     inkscape:pagecheckerboard="0"
     inkscape:deskcolor="#d1d1d1"
     showgrid="false"
     inkscape:zoom="0.65186406"
     inkscape:cx="98.947011"
     inkscape:cy="155.70731"
     inkscape:window-width="1280"
     inkscape:window-height="730"
     inkscape:window-x="-6"
     inkscape:window-y="-6"
     inkscape:window-maximized="1"
     inkscape:current-layer="svg20"
     showguides="false"
     inkscape:lockguides="false" /><!-- react-empty: 6 --><path
     style="display:inline;fill:#000000;stroke-width:0.835748"
     d="m 401.24068,454.06079 c -1.37899,-0.86827 -23.63441,-22.77391 -49.4565,-48.67919 -53.8925,-54.06609 -51.67048,-51.05808 -44.48042,-60.21451 3.20208,-4.07781 3.49947,-3.39723 -5.32385,-12.18386 -8.86992,-8.83306 -9.02235,-8.87503 -15.71772,-4.32829 -6.02123,4.08895 -18.99587,10.91141 -24.17354,12.71119 -2.06847,0.71901 -6.39347,2.23161 -9.6111,3.36133 -8.06574,2.8319 -12.37463,3.94781 -25.49031,6.60145 -7.3362,1.48429 -38.62993,1.48429 -45.96614,0 -26.33323,-5.32787 -42.70911,-11.89953 -61.18391,-24.55317 -22.501055,-15.41126 -48.314525,-47.37667 -53.521715,-66.27714 -0.25327,-0.91932 -1.38649,-4.1596 -2.51826,-7.20061 -2.25129,-6.04915 -4.91394,-16.26441 -6.61894,-25.39356 -1.46822,-7.86132 -1.46359,-38.97795 0.007,-46.80188 3.34958,-17.82113 6.16235,-26.50741 13.5315,-41.7874 C 103.32316,71.705646 182.25118,39.360786 253.31336,64.486736 c 4.13695,1.46272 8.25639,2.88368 9.15432,3.15767 3.84977,1.17472 20.3414,9.97325 25.94709,13.84314 5.50994,3.80381 19.44119,15.63361 22.98307,19.516214 14.25821,15.62983 20.13522,24.13961 27.61289,39.98289 7.00614,14.84422 10.20581,25.80874 13.31192,45.61672 2.47663,15.79378 0.2313,42.40617 -5.03594,59.68752 -0.98072,3.21763 -1.98009,6.70198 -2.22082,7.74302 -0.24074,1.04103 -0.76889,2.09746 -1.17367,2.34762 -0.40478,0.25017 -0.73596,1.04966 -0.73596,1.77664 0,1.53995 -7.5784,17.41173 -10.67595,22.35911 -1.1647,1.86024 -3.43865,5.38115 -5.05324,7.82423 l -2.9356,4.44197 8.27203,8.30319 c 8.92515,8.95876 9.33388,9.18698 11.72381,6.54612 3.60805,-3.98684 9.21919,-5.18783 13.54498,-2.89914 4.71932,2.49692 96.90558,95.98094 97.51402,98.88678 1.25832,6.00965 0.49817,7.0468 -21.18208,28.90083 -24.49134,24.68766 -26.27827,25.84966 -33.12349,21.53953 z M 218.70258,310.68486 c 16.27432,-2.5078 26.45011,-6.17707 42.96403,-15.49231 19.10721,-10.77807 36.93319,-33.03929 44.51256,-55.58765 1.62931,-4.84713 2.28127,-7.32723 4.50384,-17.13283 1.36369,-6.01639 1.36766,-30.73087 0.006,-36.77291 -9.48324,-42.07661 -35.45649,-71.28675 -74.09053,-83.32401 -60.47376,-18.841894 -125.53301,18.637 -137.387515,79.14527 -0.49531,2.52814 -1.28299,6.58958 -1.75041,9.02543 -8.44539,44.01101 21.693485,95.04172 67.263605,113.88974 15.3326,6.34164 37.05726,8.85677 53.97856,6.24927 z M 136.43812,222.6152 c -1.84729,-2.04124 -2.04017,-33.89113 -0.21975,-36.28923 1.76243,-2.32172 134.08478,-2.25778 136.1876,0.0658 2.00096,2.21103 2.07154,33.05406 0.0822,35.89432 l -1.30102,1.8575 h -66.68292 c -63.53992,0 -66.7481,-0.072 -68.06606,-1.52837 z"
     id="path4962"
     inkscape:label="zoom out" /></svg>
