<?xml version="1.0" encoding="UTF-8" standalone="no"?>
<svg
   viewBox="0 0 512 512"
   style="height: 512px; width: 512px;"
   version="1.1"
   id="svg20"
   sodipodi:docname="icon_zoom_in.svg"
   xml:space="preserve"
   inkscape:version="1.2.2 (732a01da63, 2022-12-09)"
   xmlns:inkscape="http://www.inkscape.org/namespaces/inkscape"
   xmlns:sodipodi="http://sodipodi.sourceforge.net/DTD/sodipodi-0.dtd"
   xmlns="http://www.w3.org/2000/svg"
   xmlns:svg="http://www.w3.org/2000/svg"><defs
     id="defs24"><rect
       x="108.91842"
       y="39.885617"
       width="285.33557"
       height="227.0412"
       id="rect3408" /><rect
       x="91.457628"
       y="26.847458"
       width="35.322034"
       height="24.881356"
       id="rect3398" /><rect
       x="75.169047"
       y="147.26997"
       width="365.1068"
       height="222.43902"
       id="rect8366" /><rect
       x="204.03027"
       y="193.29183"
       width="90.509669"
       height="102.78217"
       id="rect870" /><rect
       x="75.169047"
       y="147.26997"
       width="365.1068"
       height="222.43902"
       id="rect9898" /><rect
       x="75.169047"
       y="147.26997"
       width="365.1068"
       height="222.43902"
       id="rect10806" /><rect
       x="75.169047"
       y="147.26997"
       width="365.1068"
       height="222.43902"
       id="rect10864" /></defs><sodipodi:namedview
     id="namedview22"
     pagecolor="#ffffff"
     bordercolor="#000000"
     borderopacity="0.25"
     inkscape:showpageshadow="2"
     inkscape:pageopacity="0.0"
     inkscape:pagecheckerboard="0"
     inkscape:deskcolor="#d1d1d1"
     showgrid="false"
     inkscape:zoom="0.65186406"
     inkscape:cx="98.947011"
     inkscape:cy="155.70731"
     inkscape:window-width="1280"
     inkscape:window-height="730"
     inkscape:window-x="-6"
     inkscape:window-y="-6"
     inkscape:window-maximized="1"
     inkscape:current-layer="svg20"
     showguides="false"
     inkscape:lockguides="false" /><!-- react-empty: 6 --><path
     style="display:inline;fill:#000000;stroke-width:0.834024"
     d="m 401.50669,454.77353 c -2.59739,-1.40952 -95.45338,-94.2571 -96.8007,-96.79193 -2.29093,-4.31009 -1.09379,-9.91388 2.88765,-13.51703 2.63543,-2.38502 2.40769,-2.79285 -6.53373,-11.70073 l -8.28717,-8.25608 -6.51675,4.25163 c -18.01368,11.7524 -33.44629,17.77048 -58.64323,22.86845 -7.34727,1.48653 -38.56146,1.48153 -45.87131,-0.008 -2.98164,-0.60731 -7.29771,-1.48675 -9.59127,-1.9543 -10.32561,-2.10496 -25.1756,-7.49759 -35.86302,-13.02332 C 86.752208,311.03179 56.637905,260.7324 56.637905,203.60613 c 0,-55.97827 31.35948,-106.619043 81.734315,-131.988425 6.0396,-3.041617 17.42517,-7.732225 21.2676,-8.761785 28.38604,-7.605921 49.68516,-8.778224 73.39409,-4.039602 103.41626,20.669441 153.04907,139.347862 95.29724,227.867912 l -4.25163,6.51675 8.25608,8.28717 c 8.90788,8.94143 9.31571,9.16916 11.70073,6.53373 3.48378,-3.84953 9.20853,-5.18738 13.06992,-3.05438 2.83944,1.56848 93.8805,92.35014 96.18238,95.90833 4.44834,6.87614 3.33911,8.6791 -19.55862,31.79077 -23.09096,23.30672 -26.14785,25.40391 -32.22332,22.10693 z M 219.34519,311.06765 c 14.26635,-2.19838 21.66493,-4.5622 34.45318,-11.00763 25.4843,-12.84442 45.75838,-37.44128 53.17499,-64.51281 0.43985,-1.60549 1.16561,-4.23267 1.61281,-5.83816 12.7032,-45.60597 -11.85677,-99.10449 -55.44863,-120.78276 -64.95782,-32.303559 -137.78604,3.69352 -154.089662,76.16249 -1.492529,6.63423 -1.499138,32.64475 -0.0098,38.36509 0.597169,2.29356 1.470682,5.85902 1.941142,7.92322 0.94463,4.14469 2.01318,7.46821 3.62001,11.25932 0.58326,1.37614 1.3292,3.44035 1.65763,4.58713 11.19348,39.08393 67.49614,70.86966 113.08827,63.84411 z m -32.88735,-38.68056 c -1.21411,-1.34158 -1.3803,-4.29313 -1.3803,-24.51447 0,-20.19381 -0.16041,-23.05081 -1.31925,-23.49549 -0.72558,-0.27844 -11.20747,-0.50625 -23.29308,-0.50625 -27.41759,0 -24.59874,2.2304 -24.58229,-19.45062 0.0164,-21.62574 -3.01325,-19.25007 25.18505,-19.74849 l 23.59256,-0.41701 0.21461,-23.35266 c 0.26152,-28.45738 -2.08145,-25.44162 19.75287,-25.42496 21.51037,0.0164 19.15032,-3.00862 19.64865,25.18506 l 0.41702,23.59256 22.8851,0.2222 c 28.85635,0.28017 25.90528,-1.97786 25.90528,19.8215 0,21.32496 2.99398,19.05126 -25.77262,19.57242 l -23.01776,0.41701 -0.41702,23.43472 c -0.32306,18.15482 -0.6749,23.74508 -1.56166,24.81221 -1.82215,2.19278 -34.25863,2.06061 -36.25716,-0.14773 z"
     id="path4948"
     inkscape:label="zoom in" /></svg>
