<?xml version="1.0" encoding="UTF-8" standalone="no"?>
<svg
   viewBox="0 0 512 512"
   style="height: 512px; width: 512px;"
   version="1.1"
   id="svg20"
   sodipodi:docname="icon_save_switch1_dm.svg"
   xml:space="preserve"
   inkscape:version="1.2.2 (732a01da63, 2022-12-09)"
   xmlns:inkscape="http://www.inkscape.org/namespaces/inkscape"
   xmlns:sodipodi="http://sodipodi.sourceforge.net/DTD/sodipodi-0.dtd"
   xmlns="http://www.w3.org/2000/svg"
   xmlns:svg="http://www.w3.org/2000/svg"><defs
     id="defs24"><rect
       x="108.91842"
       y="39.885617"
       width="285.33557"
       height="227.0412"
       id="rect3408" /><rect
       x="91.457628"
       y="26.847458"
       width="35.322034"
       height="24.881356"
       id="rect3398" /><rect
       x="75.169047"
       y="147.26997"
       width="365.1068"
       height="222.43902"
       id="rect8366" /><rect
       x="204.03027"
       y="193.29183"
       width="90.509669"
       height="102.78217"
       id="rect870" /><rect
       x="75.169047"
       y="147.26997"
       width="365.1068"
       height="222.43902"
       id="rect9898" /><rect
       x="75.169047"
       y="147.26997"
       width="365.1068"
       height="222.43902"
       id="rect10806" /><rect
       x="75.169047"
       y="147.26997"
       width="365.1068"
       height="222.43902"
       id="rect10864" /></defs><sodipodi:namedview
     id="namedview22"
     pagecolor="#ffffff"
     bordercolor="#000000"
     borderopacity="0.25"
     inkscape:showpageshadow="2"
     inkscape:pageopacity="0.0"
     inkscape:pagecheckerboard="0"
     inkscape:deskcolor="#d1d1d1"
     showgrid="false"
     inkscape:zoom="0.92187499"
     inkscape:cx="81.898306"
     inkscape:cy="252.20339"
     inkscape:window-width="1280"
     inkscape:window-height="730"
     inkscape:window-x="-6"
     inkscape:window-y="-6"
     inkscape:window-maximized="1"
     inkscape:current-layer="svg20"
     showguides="true"
     inkscape:lockguides="false" /><!-- react-empty: 6 --><g
     id="g965"
     inkscape:label="hidden switch"
     style="display:inline"><g
       id="g941"
       inkscape:label="circles"
       transform="matrix(0.75426607,0,0,0.75426607,144.48574,127.41529)"
       style="display:inline"><g
         id="g939"
         inkscape:label="square"
         style="display:none"><rect
           style="fill:#d3d3d3;fill-opacity:1;stroke:#000000;stroke-width:11.9221;stroke-dasharray:none;stroke-opacity:1"
           id="rect933"
           width="214.76871"
           height="214.76871"
           x="148.61565"
           y="148.61565"
           ry="55.226238" /><text
           xml:space="preserve"
           style="font-size:148.013px;font-family:Calibri;-inkscape-font-specification:Calibri;fill:#000000;stroke-width:12.3345"
           x="180.43965"
           y="298.29019"
           id="text937"><tspan
             sodipodi:role="line"
             id="tspan935"
             x="180.43965"
             y="298.29019"
             style="stroke-width:12.3345">e4</tspan></text></g><g
         id="g1137"
         inkscape:label="circle_back_full"
         transform="translate(-17.234714,-27.178734)"
         style="display:inline"><circle
           style="opacity:1;fill:#d3d3d3;fill-opacity:1;stroke:#000000;stroke-width:14.1575;stroke-dasharray:none;stroke-opacity:1"
           id="circle1131"
           cx="78.178284"
           cy="123.442"
           r="144.75548" /><text
           xml:space="preserve"
           style="font-size:148.013px;font-family:Calibri;-inkscape-font-specification:Calibri;display:inline;fill:#000000;stroke-width:12.3345"
           x="-35.360985"
           y="170.20197"
           id="text1135"><tspan
             sodipodi:role="line"
             id="tspan1133"
             x="-35.360985"
             y="170.20197"
             style="stroke-width:12.3345">Ke2</tspan></text></g><g
         id="g973"
         inkscape:label="circle_back_transparent_dm"
         transform="translate(-18.467701,-27.178734)"
         style="display:none"><circle
           style="opacity:1;fill:#3d5e8d;fill-opacity:1;stroke:#1b3968;stroke-width:14.1575;stroke-dasharray:none;stroke-opacity:1"
           id="circle967"
           cx="78.178284"
           cy="123.442"
           r="144.75548" /><text
           xml:space="preserve"
           style="font-size:148.013px;font-family:Calibri;-inkscape-font-specification:Calibri;display:inline;fill:#6482b1;fill-opacity:1;stroke-width:12.3345"
           x="-35.360985"
           y="170.20197"
           id="text971"><tspan
             sodipodi:role="line"
             id="tspan969"
             x="-35.360985"
             y="170.20197"
             style="fill:#6482b1;fill-opacity:1;stroke-width:12.3345">Ke2</tspan></text></g><g
         id="g4937"
         inkscape:label="circle_back_transparent_lm"
         transform="translate(-18.467701,-27.178738)"
         style="height:512px;width:512px;display:none"><circle
           style="opacity:1;fill:#f2f2f2;fill-opacity:1;stroke:#d9d9d9;stroke-width:14.1575;stroke-dasharray:none;stroke-opacity:1"
           id="circle4931"
           cx="78.178284"
           cy="123.442"
           r="144.75548" /><text
           xml:space="preserve"
           style="font-size:148.013px;font-family:Calibri;-inkscape-font-specification:Calibri;display:inline;fill:#b3b3b3;fill-opacity:1;stroke-width:12.3345"
           x="-35.360985"
           y="170.20197"
           id="text4935"><tspan
             sodipodi:role="line"
             id="tspan4933"
             x="-35.360985"
             y="170.20197"
             style="fill:#b3b3b3;fill-opacity:1;stroke-width:12.3345">Ke2</tspan></text></g><g
         id="g2662"
         inkscape:label="circle_front_transparent_dm"
         transform="translate(173.77215,116.40455)"
         style="display:inline"><circle
           style="display:inline;opacity:1;fill:#3d5e8d;fill-opacity:1;stroke:#1b3968;stroke-width:14.1575;stroke-dasharray:none;stroke-opacity:1"
           id="circle2656"
           cx="78.178284"
           cy="123.442"
           r="144.75548" /><text
           xml:space="preserve"
           style="font-size:148.013px;font-family:Calibri;-inkscape-font-specification:Calibri;display:inline;fill:#6482b1;fill-opacity:1;stroke-width:12.3345"
           x="-35.360985"
           y="170.20197"
           id="text2660"><tspan
             sodipodi:role="line"
             id="tspan2658"
             x="-35.360985"
             y="170.20197"
             style="fill:#6482b1;fill-opacity:1;stroke-width:12.3345">Ke2</tspan></text></g><g
         id="g4925"
         inkscape:label="circle_front_transparent_lm"
         transform="translate(173.77215,116.40455)"
         style="display:none"><circle
           style="display:inline;opacity:1;fill:#f2f2f2;fill-opacity:1;stroke:#d9d9d9;stroke-width:14.1575;stroke-dasharray:none;stroke-opacity:1"
           id="circle4919"
           cx="78.178284"
           cy="123.442"
           r="144.75548" /><text
           xml:space="preserve"
           style="font-size:148.013px;font-family:Calibri;-inkscape-font-specification:Calibri;display:inline;fill:#b3b3b3;fill-opacity:1;stroke-width:12.3345"
           x="-35.360985"
           y="170.20197"
           id="text4923"><tspan
             sodipodi:role="line"
             id="tspan4921"
             x="-35.360985"
             y="170.20197"
             style="fill:#b3b3b3;fill-opacity:1;stroke-width:12.3345">Ke2</tspan></text></g><g
         id="g2688"
         inkscape:label="circle_front_full"
         transform="translate(173.77215,116.40455)"
         style="display:none"><circle
           style="opacity:1;fill:#d3d3d3;fill-opacity:1;stroke:#000000;stroke-width:14.1575;stroke-dasharray:none;stroke-opacity:1"
           id="circle2682"
           cx="78.178284"
           cy="123.442"
           r="144.75548" /><text
           xml:space="preserve"
           style="font-size:148.013px;font-family:Calibri;-inkscape-font-specification:Calibri;display:inline;fill:#000000;stroke-width:12.3345"
           x="-35.360985"
           y="170.20197"
           id="text2686"><tspan
             sodipodi:role="line"
             id="tspan2684"
             x="-35.360985"
             y="170.20197"
             style="stroke-width:12.3345">Ke2</tspan></text></g></g><path
       style="display:inline;fill:#ff0000;stroke:#000000;stroke-width:4.17424;stroke-dasharray:none;stroke-opacity:1"
       d="m 159.82206,256.85726 c -0.51509,0.68472 -1.11145,7.19723 -1.1017,12.0312 0.0249,12.34335 3.19717,22.97829 10.00999,33.55791 6.26288,9.72561 16.41571,18.64886 27.13383,23.84771 8.94118,4.33693 19.07541,6.93571 28.67326,7.35284 l 3.8533,0.16746 v 6.65347 6.65347 l 0.91634,0.72702 c 0.53805,0.42689 1.17986,0.67235 1.55469,0.59458 0.65557,-0.13602 45.88803,-27.92322 46.36175,-28.48095 0.73106,-0.86073 0.25935,-1.8775 -1.29707,-2.79569 -1.74103,-1.02713 -8.1402,-4.96992 -36.34135,-22.39151 -3.79893,-2.34683 -7.30603,-4.47434 -7.79358,-4.72779 -1.17026,-0.60836 -2.60498,-0.31546 -3.05502,0.6237 -0.19016,0.39685 -0.34576,3.59264 -0.34576,7.10178 v 6.38025 l -2.59874,-0.002 c -7.36464,-0.005 -16.85959,-1.99522 -25.06663,-5.25485 -17.91187,-7.11377 -32.21118,-21.54279 -38.46137,-38.80988 -0.77902,-2.15215 -1.375,-3.31394 -1.72918,-3.37085 -0.29725,-0.0477 -0.61799,0.0163 -0.71276,0.1422 z"
       id="path961"
       inkscape:label="arrow1" /><path
       style="display:none;fill:#ff0000;stroke:#000000;stroke-width:4.084;stroke-dasharray:none;stroke-opacity:1"
       d="m 224.48325,369.71601 c -0.0104,-3.54413 -0.056,-6.67936 -0.10132,-6.96718 -0.0731,-0.46375 -1.02249,-0.45728 -8.34038,0.0568 -9.55517,0.67126 -16.33641,0.92839 -21.00973,0.79667 -19.31014,-0.54431 -35.66891,-5.53491 -48.89213,-14.91565 -15.20461,-10.78635 -25.00864,-25.61199 -27.77899,-42.00734 -1.10824,-6.55877 -1.20131,-11.53829 -0.35337,-18.9095 0.579,-5.03345 1.33,-8.38884 3.04767,-13.61667 3.52922,-10.74144 9.48755,-20.4024 15.36086,-24.9064 4.1479,-3.18087 7.03928,-2.84425 8.00904,0.93246 0.39167,1.52536 0.36993,1.83734 -0.4271,6.12635 -0.91452,4.92142 -1.78782,7.63481 -4.18807,13.01314 -0.78652,1.76242 -2.04221,4.57243 -2.79041,6.24447 -2.43798,5.44838 -3.64073,11.92865 -3.2469,17.49432 0.24548,3.46969 1.45107,8.50471 2.72237,11.36981 4.18456,9.43053 13.83649,18.67576 24.21659,23.19615 10.70187,4.6605 25.93642,6.38312 44.62826,5.04622 8.87827,-0.635 18.7357,-1.97244 18.8416,-2.55639 0.0358,-0.19777 0.0427,-3.67948 0.0152,-7.73711 -0.0275,-4.05763 0.005,-7.41748 0.0711,-7.46634 0.14758,-0.10821 48.16966,29.81994 48.39011,30.1575 0.13237,0.20268 -47.33978,30.95296 -47.94493,31.05653 -0.1158,0.0198 -0.21903,-2.86371 -0.22937,-6.40783 z"
       id="path963"
       inkscape:label="arrow2" /></g></svg>
