<?xml version="1.0" encoding="UTF-8" standalone="no"?>
<svg
   viewBox="0 0 512 512"
   style="height: 512px; width: 512px;"
   version="1.1"
   id="svg20"
   sodipodi:docname="icon_comment_on.svg"
   xml:space="preserve"
   inkscape:version="1.2.2 (732a01da63, 2022-12-09)"
   xmlns:inkscape="http://www.inkscape.org/namespaces/inkscape"
   xmlns:sodipodi="http://sodipodi.sourceforge.net/DTD/sodipodi-0.dtd"
   xmlns="http://www.w3.org/2000/svg"
   xmlns:svg="http://www.w3.org/2000/svg"><defs
     id="defs24"><rect
       x="75.169047"
       y="147.26997"
       width="365.1068"
       height="222.43902"
       id="rect8366" /><rect
       x="204.03027"
       y="193.29183"
       width="90.509669"
       height="102.78217"
       id="rect870" /><rect
       x="75.169047"
       y="147.26997"
       width="365.1068"
       height="222.43902"
       id="rect9898" /><rect
       x="75.169047"
       y="147.26997"
       width="365.1068"
       height="222.43902"
       id="rect10806" /><rect
       x="75.169047"
       y="147.26997"
       width="365.1068"
       height="222.43902"
       id="rect10864" /></defs><sodipodi:namedview
     id="namedview22"
     pagecolor="#ffffff"
     bordercolor="#000000"
     borderopacity="0.25"
     inkscape:showpageshadow="2"
     inkscape:pageopacity="0.0"
     inkscape:pagecheckerboard="0"
     inkscape:deskcolor="#d1d1d1"
     showgrid="false"
     inkscape:zoom="0.92187499"
     inkscape:cx="179.52543"
     inkscape:cy="280.40678"
     inkscape:window-width="1280"
     inkscape:window-height="730"
     inkscape:window-x="-6"
     inkscape:window-y="-6"
     inkscape:window-maximized="1"
     inkscape:current-layer="svg20" /><!-- react-empty: 6 --><g
     id="g1259"
     style="display:inline"
     inkscape:label="comment"
     transform="translate(0,2.7960756)"><g
       id="g27798"
       inkscape:label="own comment"
       style="display:inline"><path
         id="rect27705"
         style="display:inline;opacity:1;fill:#ffffff;fill-opacity:1;stroke:#000000;stroke-width:12.471;stroke-dasharray:none;stroke-opacity:1"
         d="m 122.76758,117.15234 c -18.13435,0 -32.734377,14.60003 -32.734377,32.73438 v 164.49805 c 0,18.13434 14.600027,32.73437 32.734377,32.73437 h 23.07422 l -0.89258,52 74.1914,-52 h 169.00782 c 18.13434,0 32.73242,-14.60003 32.73242,-32.73437 V 149.88672 c 0,-18.13435 -14.59808,-32.73438 -32.73242,-32.73438 z"
         inkscape:label="commentbox" /><rect
         style="opacity:1;fill:#000000;fill-opacity:1;stroke:none;stroke-width:5.6386;stroke-dasharray:none;stroke-opacity:1"
         id="rect27787"
         width="167.82921"
         height="14"
         x="171.66103"
         y="179.37039"
         ry="0"
         inkscape:label="line1" /><rect
         style="opacity:1;fill:#000000;fill-opacity:1;stroke:none;stroke-width:5.63856;stroke-dasharray:none;stroke-opacity:1"
         id="rect27789"
         width="167.82916"
         height="14"
         x="171.66103"
         y="224.16985"
         ry="0"
         inkscape:label="line2" /><rect
         style="opacity:1;fill:#000000;fill-opacity:1;stroke:none;stroke-width:5.63856;stroke-dasharray:none;stroke-opacity:1"
         id="rect27791"
         width="167.82916"
         height="14"
         x="171.66103"
         y="269.06961"
         ry="0"
         inkscape:label="line3" /></g><g
       id="g1443"
       inkscape:label="tick_g"
       transform="matrix(1.1518644,0,0,1.1518644,-101.07472,136.90037)"
       style="display:inline"><circle
         style="display:inline;fill:#ffffff;fill-opacity:1;stroke:none"
         id="circle1436"
         cx="393.7627"
         cy="216.94916"
         r="34.711864"
         inkscape:label="tick_bg" /><path
         style="display:inline;fill:#a1cb41;fill-opacity:1;stroke-width:0.198572"
         d="m 388.73952,266.09764 c -6.08136,-0.35206 -12.88829,-2.16106 -18.56451,-4.9337 -2.88822,-1.41079 -4.85936,-2.45722 -5.06305,-2.68785 -0.0546,-0.0618 -0.54602,-0.41563 -1.09203,-0.78625 -0.9056,-0.61469 -2.32738,-1.65032 -3.0782,-2.24215 -0.16416,-0.1294 -0.70025,-0.54681 -1.1913,-0.92757 -1.16665,-0.90464 -5.63381,-5.46714 -6.6508,-6.79276 -1.62568,-2.11903 -3.47465,-4.81429 -3.47465,-5.06506 0,-0.14252 -0.0803,-0.25913 -0.1785,-0.25913 -0.0982,0 -0.36137,-0.35091 -0.58488,-0.7798 -0.5623,-1.07903 -0.90648,-1.68482 -1.02376,-1.80191 -0.24454,-0.24414 -2.05345,-4.21302 -2.7154,-5.95779 -4.88141,-12.86641 -4.19213,-27.41797 1.87887,-39.665 1.11655,-2.25241 2.1889,-4.21577 2.41559,-4.42263 0.0598,-0.0546 0.64084,-0.9036 1.2911,-1.88664 2.12405,-3.21103 6.51876,-8.09315 9.03646,-10.0387 0.48777,-0.37693 1.11321,-0.88796 1.38986,-1.13563 1.14845,-1.02815 5.75043,-3.92512 8.10317,-5.10097 11.19391,-5.59452 22.68745,-6.86076 35.18756,-3.87661 0.92823,0.2216 1.86638,0.48057 2.08479,0.5755 0.2184,0.0949 1.11188,0.41972 1.9855,0.72176 1.88668,0.65228 4.65071,1.83592 6.48224,2.7759 2.67482,1.37277 7.09838,4.34958 8.60997,5.79402 0.21968,0.20992 0.54861,0.46519 0.73095,0.56725 0.68101,0.38119 3.99213,3.71461 5.71962,5.75814 1.62376,1.92081 2.25604,2.76219 3.34847,4.45583 0.66931,1.03764 1.29962,1.98714 1.40069,2.10997 0.10107,0.12284 0.46992,0.7931 0.81965,1.48945 0.34973,0.69636 0.71407,1.29589 0.80963,1.3323 0.0956,0.0364 0.17375,0.14639 0.17375,0.2444 0,0.098 0.34781,0.91721 0.77291,1.82044 2.40375,5.10733 3.96059,11.38822 4.40248,17.76127 0.19562,2.82135 0.18183,3.91643 -0.0883,7.01704 -0.36588,4.19925 -1.29481,9.04165 -2.11435,11.02191 -0.0904,0.21845 -0.36374,1.02275 -0.6074,1.78734 -0.65189,2.04554 -2.15455,5.27842 -3.70119,7.96292 -1.91379,3.32178 -1.92798,3.34572 -2.04906,3.45617 -0.0599,0.0546 -0.32445,0.41208 -0.58798,0.79437 -0.93237,1.35258 -3.06882,3.89381 -4.65038,5.53144 -2.53246,2.62226 -7.46748,6.78133 -8.04651,6.78133 -0.11386,0 -0.20703,0.0743 -0.20703,0.16503 0,0.0908 -0.2457,0.28863 -0.54601,0.43968 -0.30031,0.15106 -0.8137,0.4566 -1.14087,0.67899 -2.28084,1.55034 -8.57575,4.45282 -10.97344,5.05965 -0.40803,0.10327 -1.50132,0.40916 -2.42955,0.67974 -4.21204,1.22785 -10.73749,1.87625 -15.88408,1.57831 z m -1.11803,-30.03496 c 2.03712,-2.04438 3.05264,-2.93093 3.27609,-2.86004 0.24039,0.0762 0.25774,0.0552 0.0674,-0.0818 -0.18949,-0.13633 0.37854,-0.77669 2.17458,-2.4515 1.33708,-1.24684 3.15011,-2.9673 4.02894,-3.82326 0.87885,-0.85597 1.95529,-1.87669 2.3921,-2.26828 0.43681,-0.39159 2.17283,-2.01479 3.85783,-3.60712 3.82343,-3.61318 3.75716,-3.55075 7.07917,-6.66841 1.51301,-1.41994 3.55778,-3.35017 4.54393,-4.28938 0.98616,-0.93922 2.32909,-2.20502 2.98431,-2.81287 0.65522,-0.60786 1.64492,-1.53738 2.19935,-2.0656 0.55442,-0.52822 1.47024,-1.39355 2.03515,-1.92296 0.5649,-0.52942 1.0271,-1.04961 1.0271,-1.15599 0,-0.10637 -1.93119,-2.11124 -4.29153,-4.45527 -3.15805,-3.13621 -4.38299,-4.23282 -4.63782,-4.15192 -0.19046,0.0605 -0.70386,0.48773 -1.1409,0.9495 -0.43703,0.46176 -1.77815,1.75503 -2.98026,2.87393 -1.20211,1.11889 -2.62182,2.44755 -3.1549,2.95258 -3.24247,3.07175 -4.35264,4.12462 -6.14272,5.82566 -1.09816,1.04354 -3.15316,2.98342 -4.56667,4.31084 -1.41351,1.32742 -2.8846,2.7126 -3.26909,3.07819 -0.38449,0.36558 -1.7527,1.64773 -3.04046,2.84922 -1.28776,1.20148 -3.02402,2.83243 -3.85837,3.62432 -0.83434,0.79189 -1.56803,1.4398 -1.63042,1.4398 -0.29127,0 -2.1776,-2.04126 -2.06089,-2.23015 0.0728,-0.11788 0.0432,-0.15915 -0.0659,-0.0917 -0.27992,0.17303 -6.46651,-5.97389 -6.29378,-6.25342 0.0834,-0.135 0.0496,-0.16924 -0.0849,-0.0861 -0.26475,0.16365 -2.69504,-2.17395 -2.53293,-2.43631 0.0602,-0.0975 -0.0459,-0.16505 -0.23577,-0.15007 -0.21505,0.0169 -0.33506,-0.10308 -0.31811,-0.31818 0.015,-0.18996 -0.0586,-0.29237 -0.16339,-0.22756 -0.10484,0.0648 -0.94362,-0.6542 -1.86394,-1.5978 -1.37215,-1.40685 -1.73584,-1.68137 -2.02067,-1.52526 -0.62042,0.34006 -8.38865,8.29008 -8.38865,8.58497 0,0.30856 23.63309,24.00688 23.93944,24.00551 0.10147,-4e-4 1.51302,-1.33407 3.13676,-2.96359 z"
         id="path1303"
         inkscape:label="tick" /></g></g></svg>
