<?xml version="1.0" encoding="UTF-8" standalone="no"?>
<svg
   viewBox="0 0 512 512"
   style="height: 512px; width: 512px;"
   version="1.1"
   id="svg20"
   sodipodi:docname="icon_standard.svg"
   xml:space="preserve"
   inkscape:version="1.2.2 (732a01da63, 2022-12-09)"
   xmlns:inkscape="http://www.inkscape.org/namespaces/inkscape"
   xmlns:sodipodi="http://sodipodi.sourceforge.net/DTD/sodipodi-0.dtd"
   xmlns="http://www.w3.org/2000/svg"
   xmlns:svg="http://www.w3.org/2000/svg"><defs
     id="defs24"><rect
       x="108.91842"
       y="39.885617"
       width="285.33557"
       height="227.0412"
       id="rect3408" /><rect
       x="91.457628"
       y="26.847458"
       width="35.322034"
       height="24.881356"
       id="rect3398" /><rect
       x="75.169047"
       y="147.26997"
       width="365.1068"
       height="222.43902"
       id="rect8366" /><rect
       x="204.03027"
       y="193.29183"
       width="90.509669"
       height="102.78217"
       id="rect870" /><rect
       x="75.169047"
       y="147.26997"
       width="365.1068"
       height="222.43902"
       id="rect9898" /><rect
       x="75.169047"
       y="147.26997"
       width="365.1068"
       height="222.43902"
       id="rect10806" /><rect
       x="75.169047"
       y="147.26997"
       width="365.1068"
       height="222.43902"
       id="rect10864" /></defs><sodipodi:namedview
     id="namedview22"
     pagecolor="#ffffff"
     bordercolor="#000000"
     borderopacity="0.25"
     inkscape:showpageshadow="2"
     inkscape:pageopacity="0.0"
     inkscape:pagecheckerboard="0"
     inkscape:deskcolor="#d1d1d1"
     showgrid="false"
     inkscape:zoom="0.92187499"
     inkscape:cx="126.37288"
     inkscape:cy="252.20339"
     inkscape:window-width="1280"
     inkscape:window-height="730"
     inkscape:window-x="-6"
     inkscape:window-y="-6"
     inkscape:window-maximized="1"
     inkscape:current-layer="svg20"
     showguides="true"
     inkscape:lockguides="false" /><!-- react-empty: 6 --><g
     id="g22896"
     inkscape:label="standard nodes"
     style="display:inline"><g
       id="g1500"><path
         style="display:inline;opacity:1;fill:#808080;fill-opacity:1;stroke:#808080;stroke-width:10;stroke-dasharray:none;stroke-opacity:1"
         d="M 263.70049,308.75577 184.51405,418.3151"
         id="path1493"
         inkscape:label="line 4"
         sodipodi:nodetypes="cc" /><path
         style="height:512px;width:512px;display:inline;opacity:1;fill:#808080;fill-opacity:1;stroke:#808080;stroke-width:10;stroke-dasharray:none;stroke-opacity:1"
         d="m 263.59322,91.11864 79.18644,107.38984"
         id="path1490"
         inkscape:label="line 3"
         sodipodi:nodetypes="cc" /><path
         style="opacity:1;fill:#808080;fill-opacity:1;stroke:#808080;stroke-width:10;stroke-dasharray:none;stroke-opacity:1"
         d="M 182.23729,198.50847 344.94915,425.22034"
         id="path1433"
         inkscape:label="line 2"
         sodipodi:nodetypes="cc" /><path
         style="opacity:1;fill:#808080;stroke:#808080;stroke-width:10;stroke-opacity:1;stroke-dasharray:none;fill-opacity:1"
         d="M 263.59322,91.11864 105.22034,311.32204"
         id="path1488"
         inkscape:label="line 1"
         sodipodi:nodetypes="cc" /></g><path
       id="path22079"
       style="display:inline;opacity:1;fill:#d3d3d3;fill-opacity:1;stroke:#000000;stroke-width:4.06922;stroke-dasharray:none;stroke-opacity:1"
       d="M 263.64074,49.350128 A 41.606466,41.606466 0 0 0 222.03461,90.956256 41.606466,41.606466 0 0 0 263.64074,132.56308 41.606466,41.606466 0 0 0 305.24757,90.956256 41.606466,41.606466 0 0 0 263.64074,49.350128 Z"
       inkscape:label="path18837" /><path
       id="path22148"
       style="display:inline;opacity:1;fill:#71797e;fill-opacity:1;stroke:#000000;stroke-width:4.06922;stroke-dasharray:none;stroke-opacity:1"
       d="m 185.64074,158.26854 a 41.606466,41.606466 0 0 0 -41.60613,41.60613 41.606466,41.606466 0 0 0 41.60613,41.60682 41.606466,41.606466 0 0 0 41.60683,-41.60682 41.606466,41.606466 0 0 0 -41.60683,-41.60613 z"
       inkscape:label="path18837" /><path
       id="path22150"
       style="display:inline;opacity:1;fill:#71797e;fill-opacity:1;stroke:#000000;stroke-width:4.06922;stroke-dasharray:none;stroke-opacity:1"
       d="m 343.64074,158.26854 a 41.606466,41.606466 0 0 0 -41.60613,41.60613 41.606466,41.606466 0 0 0 41.60613,41.60682 41.606466,41.606466 0 0 0 41.60683,-41.60682 41.606466,41.606466 0 0 0 -41.60683,-41.60613 z"
       inkscape:label="path18837" /><path
       id="path22152"
       style="display:inline;opacity:1;fill:#d3d3d3;fill-opacity:1;stroke:#000000;stroke-width:4.06922;stroke-dasharray:none;stroke-opacity:1"
       d="m 105.37567,270.25508 a 41.606466,41.606466 0 0 0 -41.606128,41.60613 41.606466,41.606466 0 0 0 41.606128,41.60682 41.606466,41.606466 0 0 0 41.60683,-41.60682 41.606466,41.606466 0 0 0 -41.60683,-41.60613 z"
       inkscape:label="path18837" /><path
       id="path22154"
       style="display:inline;opacity:1;fill:#d3d3d3;fill-opacity:1;stroke:#000000;stroke-width:4.06922;stroke-dasharray:none;stroke-opacity:1"
       d="m 263.64073,270.25508 a 41.606466,41.606466 0 0 0 -41.60612,41.60613 41.606466,41.606466 0 0 0 41.60612,41.60682 41.606466,41.606466 0 0 0 41.60683,-41.60682 41.606466,41.606466 0 0 0 -41.60683,-41.60613 z"
       inkscape:label="path18837" /><path
       id="path22156"
       style="display:inline;opacity:1;fill:#71797e;fill-opacity:1;stroke:#000000;stroke-width:4.06922;stroke-dasharray:none;stroke-opacity:1"
       d="m 185.64073,379.17349 a 41.606466,41.606466 0 0 0 -41.60612,41.60613 41.606466,41.606466 0 0 0 41.60612,41.60682 41.606466,41.606466 0 0 0 41.60683,-41.60682 41.606466,41.606466 0 0 0 -41.60683,-41.60613 z"
       inkscape:label="path18837" /><path
       id="path22158"
       style="display:inline;opacity:1;fill:#71797e;fill-opacity:1;stroke:#000000;stroke-width:4.06922;stroke-dasharray:none;stroke-opacity:1"
       d="m 343.64073,379.17349 a 41.606466,41.606466 0 0 0 -41.60612,41.60613 41.606466,41.606466 0 0 0 41.60612,41.60682 41.606466,41.606466 0 0 0 41.60683,-41.60682 41.606466,41.606466 0 0 0 -41.60683,-41.60613 z"
       inkscape:label="path18837" /></g></svg>
