<?xml version="1.0" encoding="UTF-8" standalone="no"?>
<svg
   viewBox="0 0 512 512"
   style="height: 512px; width: 512px;"
   version="1.1"
   id="svg20"
   sodipodi:docname="icon_save_switch2.svg"
   xml:space="preserve"
   inkscape:version="1.2.2 (732a01da63, 2022-12-09)"
   xmlns:inkscape="http://www.inkscape.org/namespaces/inkscape"
   xmlns:sodipodi="http://sodipodi.sourceforge.net/DTD/sodipodi-0.dtd"
   xmlns="http://www.w3.org/2000/svg"
   xmlns:svg="http://www.w3.org/2000/svg"><defs
     id="defs24"><rect
       x="75.169047"
       y="147.26997"
       width="365.1068"
       height="222.43902"
       id="rect8366" /><rect
       x="204.03027"
       y="193.29183"
       width="90.509669"
       height="102.78217"
       id="rect870" /><rect
       x="75.169047"
       y="147.26997"
       width="365.1068"
       height="222.43902"
       id="rect9898" /><rect
       x="75.169047"
       y="147.26997"
       width="365.1068"
       height="222.43902"
       id="rect10806" /><rect
       x="75.169047"
       y="147.26997"
       width="365.1068"
       height="222.43902"
       id="rect10864" /></defs><sodipodi:namedview
     id="namedview22"
     pagecolor="#ffffff"
     bordercolor="#000000"
     borderopacity="0.25"
     inkscape:showpageshadow="2"
     inkscape:pageopacity="0.0"
     inkscape:pagecheckerboard="0"
     inkscape:deskcolor="#d1d1d1"
     showgrid="false"
     inkscape:zoom="0.92187499"
     inkscape:cx="90.576272"
     inkscape:cy="278.23729"
     inkscape:window-width="1280"
     inkscape:window-height="730"
     inkscape:window-x="-6"
     inkscape:window-y="-6"
     inkscape:window-maximized="1"
     inkscape:current-layer="svg20"
     showguides="false" /><!-- react-empty: 6 --><g
     id="g965"
     inkscape:label="hidden switch"
     style="display:inline"><g
       id="g941"
       inkscape:label="circles"
       transform="matrix(0.75426607,0,0,0.75426607,144.48574,127.41529)"
       style="display:inline"><g
         id="g973"
         inkscape:label="circle_back_transparent"
         transform="translate(-18.467701,-27.178734)"
         style="display:inline"><circle
           style="opacity:1;fill:#f2f2f2;fill-opacity:1;stroke:#d9d9d9;stroke-width:14.1575;stroke-dasharray:none;stroke-opacity:1"
           id="circle967"
           cx="78.178284"
           cy="123.442"
           r="144.75548" /><text
           xml:space="preserve"
           style="font-size:148.013px;font-family:Calibri;-inkscape-font-specification:Calibri;display:inline;fill:#b3b3b3;fill-opacity:1;stroke-width:12.3345"
           x="-35.360985"
           y="170.20197"
           id="text971"><tspan
             sodipodi:role="line"
             id="tspan969"
             x="-35.360985"
             y="170.20197"
             style="fill:#b3b3b3;fill-opacity:1;stroke-width:12.3345">Ke2</tspan></text></g><g
         id="g2688"
         inkscape:label="circle_front_full"
         transform="translate(173.77215,116.40455)"
         style="display:inline"><circle
           style="opacity:1;fill:#d3d3d3;fill-opacity:1;stroke:#000000;stroke-width:14.1575;stroke-dasharray:none;stroke-opacity:1"
           id="circle2682"
           cx="78.178284"
           cy="123.442"
           r="144.75548" /><text
           xml:space="preserve"
           style="font-size:148.013px;font-family:Calibri;-inkscape-font-specification:Calibri;display:inline;fill:#000000;stroke-width:12.3345"
           x="-35.360985"
           y="170.20197"
           id="text2686"><tspan
             sodipodi:role="line"
             id="tspan2684"
             x="-35.360985"
             y="170.20197"
             style="stroke-width:12.3345">Ke2</tspan></text></g></g><path
       style="display:inline;fill:#ff0000;stroke:#000000;stroke-width:4.17424;stroke-dasharray:none;stroke-opacity:1"
       d="m 159.82206,256.85726 c -0.51509,0.68472 -1.11145,7.19723 -1.1017,12.0312 0.0249,12.34335 3.19717,22.97829 10.00999,33.55791 6.26288,9.72561 16.41571,18.64886 27.13383,23.84771 8.94118,4.33693 19.07541,6.93571 28.67326,7.35284 l 3.8533,0.16746 v 6.65347 6.65347 l 0.91634,0.72702 c 0.53805,0.42689 1.17986,0.67235 1.55469,0.59458 0.65557,-0.13602 45.88803,-27.92322 46.36175,-28.48095 0.73106,-0.86073 0.25935,-1.8775 -1.29707,-2.79569 -1.74103,-1.02713 -8.1402,-4.96992 -36.34135,-22.39151 -3.79893,-2.34683 -7.30603,-4.47434 -7.79358,-4.72779 -1.17026,-0.60836 -2.60498,-0.31546 -3.05502,0.6237 -0.19016,0.39685 -0.34576,3.59264 -0.34576,7.10178 v 6.38025 l -2.59874,-0.002 c -7.36464,-0.005 -16.85959,-1.99522 -25.06663,-5.25485 -17.91187,-7.11377 -32.21118,-21.54279 -38.46137,-38.80988 -0.77902,-2.15215 -1.375,-3.31394 -1.72918,-3.37085 -0.29725,-0.0477 -0.61799,0.0163 -0.71276,0.1422 z"
       id="path961"
       inkscape:label="arrow1" /></g></svg>
