<?xml version="1.0" encoding="UTF-8" standalone="no"?>
<svg
   viewBox="0 0 512 512"
   style="height: 512px; width: 512px;"
   version="1.1"
   id="svg20"
   sodipodi:docname="icon_arrow_trash.svg"
   xml:space="preserve"
   inkscape:version="1.2.2 (732a01da63, 2022-12-09)"
   xmlns:inkscape="http://www.inkscape.org/namespaces/inkscape"
   xmlns:sodipodi="http://sodipodi.sourceforge.net/DTD/sodipodi-0.dtd"
   xmlns="http://www.w3.org/2000/svg"
   xmlns:svg="http://www.w3.org/2000/svg"><defs
     id="defs24"><rect
       x="108.91842"
       y="39.885617"
       width="285.33557"
       height="227.0412"
       id="rect3408" /><rect
       x="91.457628"
       y="26.847458"
       width="35.322034"
       height="24.881356"
       id="rect3398" /><rect
       x="75.169047"
       y="147.26997"
       width="365.1068"
       height="222.43902"
       id="rect8366" /><rect
       x="204.03027"
       y="193.29183"
       width="90.509669"
       height="102.78217"
       id="rect870" /><rect
       x="75.169047"
       y="147.26997"
       width="365.1068"
       height="222.43902"
       id="rect9898" /><rect
       x="75.169047"
       y="147.26997"
       width="365.1068"
       height="222.43902"
       id="rect10806" /><rect
       x="75.169047"
       y="147.26997"
       width="365.1068"
       height="222.43902"
       id="rect10864" /></defs><sodipodi:namedview
     id="namedview22"
     pagecolor="#ffffff"
     bordercolor="#000000"
     borderopacity="0.25"
     inkscape:showpageshadow="2"
     inkscape:pageopacity="0.0"
     inkscape:pagecheckerboard="0"
     inkscape:deskcolor="#d1d1d1"
     showgrid="false"
     inkscape:zoom="0.65186406"
     inkscape:cx="98.947011"
     inkscape:cy="155.70731"
     inkscape:window-width="1280"
     inkscape:window-height="730"
     inkscape:window-x="-6"
     inkscape:window-y="-6"
     inkscape:window-maximized="1"
     inkscape:current-layer="svg20"
     showguides="false"
     inkscape:lockguides="false" /><!-- react-empty: 6 --><g
     id="g5796"
     inkscape:label="circle and arrow"
     transform="translate(40.967376,27.545589)"
     style="display:inline;fill:#000000"><path
       style="display:inline;fill:#000000;stroke-width:0.451823"
       d="m 278.91916,419.28152 c -6.40038,-1.896 -11.46865,-7.01463 -13.47151,-13.60533 -0.73249,-2.41038 -11.26001,-133.92481 -11.26001,-140.66507 0,-0.87436 1.84147,-0.89431 82.53901,-0.89431 79.4052,0 82.53902,0.0325 82.53902,0.85624 0,6.52326 -10.49913,137.91019 -11.22597,140.48267 -1.66807,5.90372 -5.85788,10.64961 -11.71632,13.27135 l -2.33799,1.04628 -56.39445,0.0914 c -47.70396,0.0773 -56.7454,-0.0126 -58.67178,-0.58322 z m 22.88973,-29.10002 c 2.62539,-2.04361 2.50722,0.56403 2.50649,-55.30728 -4.3e-4,-47.76614 -0.0507,-51.25996 -0.75625,-52.77255 -2.34006,-5.01668 -9.65411,-4.85432 -11.60801,0.25768 -0.89238,2.33474 -0.89238,102.90085 0,105.23559 1.4597,3.81903 6.55641,5.15635 9.85777,2.58656 z m 38.89273,0 c 2.62539,-2.04361 2.50722,0.56403 2.50649,-55.30728 -4.4e-4,-47.76614 -0.0507,-51.25996 -0.75625,-52.77255 -2.34006,-5.01668 -9.65411,-4.85432 -11.60801,0.25768 -0.89238,2.33474 -0.89238,102.90085 0,105.23559 1.4597,3.81903 6.55641,5.15635 9.85777,2.58656 z m 38.89273,0 c 2.6252,-2.04346 2.50716,0.55716 2.50716,-55.23589 0,-46.15126 -0.0677,-51.23729 -0.7015,-52.69732 -2.21094,-5.09332 -9.35031,-5.09332 -11.56126,0 -0.9848,2.26865 -1.08228,102.78238 -0.10217,105.34665 1.4597,3.81903 6.55641,5.15635 9.85777,2.58656 z M 244.36725,248.54126 c -4.30447,-1.11797 -4.87242,-2.73951 -4.87242,-13.91117 0,-16.3611 3.09972,-22.55615 13.57043,-27.12159 1.52521,-0.66502 4.72994,-0.80589 23.12417,-1.01649 l 21.35356,-0.24448 2.2397,-7.32223 c 5.97595,-19.53721 8.19499,-20.7857 36.94396,-20.7857 28.69902,0 30.98675,1.28252 36.9192,20.6972 l 2.26447,7.41073 21.35356,0.25561 c 22.74622,0.27227 22.23153,0.21731 26.7628,2.85746 7.39367,4.30794 9.9318,10.7237 9.9318,25.10517 0,10.19905 -0.44958,11.88345 -3.61955,13.56097 l -1.83902,0.9732 -91.36951,-0.0484 c -50.25324,-0.0266 -91.99666,-0.21124 -92.76315,-0.41032 z m 117.74937,-42.64803 c -0.10937,-0.32477 -0.82345,-2.65209 -1.58687,-5.17182 -2.66938,-8.8106 -1.53478,-8.40974 -23.8031,-8.40974 -22.26831,0 -21.13371,-0.40086 -23.80309,8.40974 -0.76342,2.51973 -1.4775,4.84705 -1.58687,5.17182 -0.15767,0.4682 5.10095,0.5905 25.38996,0.5905 20.28901,0 25.54763,-0.1223 25.38997,-0.5905 z"
       id="path8363"
       transform="translate(-40.967376,-27.545589)" /><path
       style="display:inline;fill:#000000;stroke-width:0.119905"
       d="m 211.04088,87.649609 c 34.37218,-15.75521 62.51607,-28.62916 62.54198,-28.60876 0.026,0.0204 -5.90989,30.39446 -13.19064,67.497931 l -13.23774,67.46087 -17.27796,-13.57653 -17.27794,-13.57653 -73.17402,92.85954 -73.174078,92.85964 -14.786,-11.65149 -14.786,-11.65147 73.174078,-92.85963 73.17407,-92.85962 -17.24028,-13.62409 -17.24027,-13.6241 z"
       id="path5519"
       inkscape:label="arrow" /></g></svg>
