<?xml version="1.0" encoding="UTF-8" standalone="no"?>
<svg
   viewBox="0 0 512 512"
   style="height: 512px; width: 512px;"
   version="1.1"
   id="svg20"
   sodipodi:docname="icon_flip.svg"
   xml:space="preserve"
   inkscape:version="1.2.2 (732a01da63, 2022-12-09)"
   xmlns:inkscape="http://www.inkscape.org/namespaces/inkscape"
   xmlns:sodipodi="http://sodipodi.sourceforge.net/DTD/sodipodi-0.dtd"
   xmlns="http://www.w3.org/2000/svg"
   xmlns:svg="http://www.w3.org/2000/svg"><defs
     id="defs24"><rect
       x="108.91842"
       y="39.885617"
       width="285.33557"
       height="227.0412"
       id="rect3408" /><rect
       x="91.457628"
       y="26.847458"
       width="35.322034"
       height="24.881356"
       id="rect3398" /><rect
       x="75.169047"
       y="147.26997"
       width="365.1068"
       height="222.43902"
       id="rect8366" /><rect
       x="204.03027"
       y="193.29183"
       width="90.509669"
       height="102.78217"
       id="rect870" /><rect
       x="75.169047"
       y="147.26997"
       width="365.1068"
       height="222.43902"
       id="rect9898" /><rect
       x="75.169047"
       y="147.26997"
       width="365.1068"
       height="222.43902"
       id="rect10806" /><rect
       x="75.169047"
       y="147.26997"
       width="365.1068"
       height="222.43902"
       id="rect10864" /></defs><sodipodi:namedview
     id="namedview22"
     pagecolor="#ffffff"
     bordercolor="#000000"
     borderopacity="0.25"
     inkscape:showpageshadow="2"
     inkscape:pageopacity="0.0"
     inkscape:pagecheckerboard="0"
     inkscape:deskcolor="#d1d1d1"
     showgrid="false"
     inkscape:zoom="0.65186406"
     inkscape:cx="98.947011"
     inkscape:cy="155.70731"
     inkscape:window-width="1280"
     inkscape:window-height="730"
     inkscape:window-x="-6"
     inkscape:window-y="-6"
     inkscape:window-maximized="1"
     inkscape:current-layer="svg20"
     showguides="false"
     inkscape:lockguides="false" /><!-- react-empty: 6 --><path
     style="display:inline;fill:#000000;stroke-width:0.985024"
     d="m 125.18697,455.22613 c -1.62529,-0.40733 -4.28485,-1.44817 -5.91014,-2.31298 -4.98127,-2.65052 -70.136607,-68.70096 -71.861397,-72.84861 -5.634,-13.54833 4.67539,-29.32513 19.1626,-29.32513 7.35168,0 9.98809,1.80281 26.32877,18.00398 15.986017,15.84953 15.986017,15.84953 16.252907,-118.05433 0.30009,-150.57093 -0.40063,-137.55521 8.30295,-154.222596 15.45726,-29.600698 35.88882,-39.202687 85.12518,-40.005309 42.80233,-0.697739 50.26093,1.877871 52.7088,18.201456 2.87368,19.163093 -5.34062,23.265033 -47.86016,23.899653 -36.50113,0.5448 -40.26027,1.37502 -48.44754,10.699796 -8.79559,10.01762 -8.16067,-0.86823 -8.45329,144.93401 -0.26194,130.51569 -0.26194,130.51569 15.26788,115.03885 23.19219,-23.1131 36.97678,-24.98231 45.67562,-6.19369 5.88409,12.70903 4.29393,15.19413 -34.87005,54.49482 -38.0626,38.19546 -40.95283,40.31387 -51.42213,37.69008 z m 147.3604,-0.10855 c -18.73246,-3.92979 -22.6398,-29.05194 -5.97133,-38.39253 4.38724,-2.45851 4.4489,-2.46337 37.3928,-2.95508 36.89446,-0.55066 40.70586,-1.43603 48.82243,-11.34124 8.50816,-10.38308 7.78341,2.55685 8.08044,-144.27125 0.264,-130.49438 0.264,-130.49438 -15.76039,-114.60675 -16.38102,16.24124 -19.01281,18.04209 -26.36712,18.04209 -14.48721,0 -24.7966,-15.7768 -19.1626,-29.32512 1.93767,-4.65959 67.16527,-70.357112 72.84641,-73.371228 12.6169,-6.693857 16.13633,-4.451573 56.34726,35.899712 38.91975,39.055606 40.41039,41.332906 35.20773,53.787686 -8.14825,19.5063 -23.13079,17.69051 -46.24388,-5.60442 -14.77536,-14.89161 -14.77536,-14.89161 -15.26787,118.83798 -0.49251,133.7296 -0.49251,133.7296 -2.80601,140.62477 -8.63102,25.72402 -27.82029,44.08896 -53.20675,50.92106 -8.42007,2.26605 -65.06312,3.6105 -73.91112,1.75432 z"
     id="path3338"
     inkscape:label="flip" /></svg>
