<?xml version="1.0" encoding="UTF-8" standalone="no"?>
<svg
   viewBox="0 0 512 512"
   style="height: 512px; width: 512px;"
   version="1.1"
   id="svg20"
   sodipodi:docname="icon_comment_off.svg"
   xml:space="preserve"
   inkscape:version="1.2.2 (732a01da63, 2022-12-09)"
   xmlns:inkscape="http://www.inkscape.org/namespaces/inkscape"
   xmlns:sodipodi="http://sodipodi.sourceforge.net/DTD/sodipodi-0.dtd"
   xmlns="http://www.w3.org/2000/svg"
   xmlns:svg="http://www.w3.org/2000/svg"><defs
     id="defs24"><rect
       x="75.169047"
       y="147.26997"
       width="365.1068"
       height="222.43902"
       id="rect8366" /><rect
       x="204.03027"
       y="193.29183"
       width="90.509669"
       height="102.78217"
       id="rect870" /><rect
       x="75.169047"
       y="147.26997"
       width="365.1068"
       height="222.43902"
       id="rect9898" /><rect
       x="75.169047"
       y="147.26997"
       width="365.1068"
       height="222.43902"
       id="rect10806" /><rect
       x="75.169047"
       y="147.26997"
       width="365.1068"
       height="222.43902"
       id="rect10864" /></defs><sodipodi:namedview
     id="namedview22"
     pagecolor="#ffffff"
     bordercolor="#000000"
     borderopacity="0.25"
     inkscape:showpageshadow="2"
     inkscape:pageopacity="0.0"
     inkscape:pagecheckerboard="0"
     inkscape:deskcolor="#d1d1d1"
     showgrid="false"
     inkscape:zoom="0.92187499"
     inkscape:cx="179.52543"
     inkscape:cy="280.40678"
     inkscape:window-width="1280"
     inkscape:window-height="730"
     inkscape:window-x="-6"
     inkscape:window-y="-6"
     inkscape:window-maximized="1"
     inkscape:current-layer="svg20" /><!-- react-empty: 6 --><g
     id="g1259"
     style="display:inline"
     inkscape:label="comment"
     transform="translate(0,2.7960756)"><g
       id="g27798"
       inkscape:label="own comment"><path
         id="rect27705"
         style="display:inline;opacity:1;fill:#ffffff;fill-opacity:1;stroke:#000000;stroke-width:12.471;stroke-dasharray:none;stroke-opacity:1"
         d="m 122.76758,117.15234 c -18.13435,0 -32.734377,14.60003 -32.734377,32.73438 v 164.49805 c 0,18.13434 14.600027,32.73437 32.734377,32.73437 h 23.07422 l -0.89258,52 74.1914,-52 h 169.00782 c 18.13434,0 32.73242,-14.60003 32.73242,-32.73437 V 149.88672 c 0,-18.13435 -14.59808,-32.73438 -32.73242,-32.73438 z"
         inkscape:label="commentbox" /><rect
         style="opacity:1;fill:#000000;fill-opacity:1;stroke:none;stroke-width:5.6386;stroke-dasharray:none;stroke-opacity:1"
         id="rect27787"
         width="167.82921"
         height="14"
         x="171.66103"
         y="179.37039"
         ry="0"
         inkscape:label="line1" /><rect
         style="opacity:1;fill:#000000;fill-opacity:1;stroke:none;stroke-width:5.63856;stroke-dasharray:none;stroke-opacity:1"
         id="rect27789"
         width="167.82916"
         height="14"
         x="171.66103"
         y="224.16985"
         ry="0"
         inkscape:label="line2" /><rect
         style="opacity:1;fill:#000000;fill-opacity:1;stroke:none;stroke-width:5.63856;stroke-dasharray:none;stroke-opacity:1"
         id="rect27791"
         width="167.82916"
         height="14"
         x="171.66103"
         y="269.06961"
         ry="0"
         inkscape:label="line3" /></g><g
       id="g1447"
       inkscape:label="cross_g"
       transform="matrix(1.15186,0,0,1.1518601,36.369289,136.901)"
       style="display:inline"><circle
         style="fill:#ffffff;fill-opacity:1;stroke:none"
         id="path1432"
         cx="272.27118"
         cy="215.86441"
         r="34.711864"
         inkscape:label="cross_bg" /><path
         style="display:inline;fill:#ff2a2a;fill-opacity:1;stroke-width:0.198625"
         d="m 268.63491,266.0691 c -7.98344,-0.9103 -12.59068,-2.20852 -18.63282,-5.25037 -12.33452,-6.20964 -21.54461,-17.24062 -25.46193,-30.4959 -1.43922,-4.86999 -1.98307,-8.82715 -1.96337,-14.28605 0.038,-10.53286 2.66134,-19.16152 8.48559,-27.91069 1.90892,-2.86756 3.3988,-4.67052 6.0858,-7.36461 7.70495,-7.72528 17.23352,-12.53004 28.20987,-14.22476 2.86431,-0.44225 10.83591,-0.49817 13.70322,-0.0961 16.78339,2.35323 30.93377,12.50832 38.40947,27.56473 5.48497,11.04703 6.61852,24.49732 3.07049,36.43377 -3.68498,12.39724 -12.34025,23.14867 -23.74062,29.4902 -7.47597,4.15855 -16.10525,6.32978 -24.78955,6.23733 -1.5292,-0.0163 -3.04847,-0.0602 -3.37615,-0.0976 z m 23.1957,-29.29879 c 2.38092,-2.41867 4.30235,-4.51366 4.26985,-4.65555 -0.0492,-0.21474 -5.91542,-6.77853 -10.10364,-11.30512 -3.14179,-3.39563 -3.95659,-4.31364 -3.95659,-4.45781 0,-0.0869 0.39129,-0.50621 0.86955,-0.93181 0.68004,-0.60517 4.50551,-4.18217 6.66993,-6.23676 0.86082,-0.81712 6.76286,-6.36305 7.45461,-7.00482 l 0.79439,-0.73699 -4.58573,-4.5893 c -3.89755,-3.90057 -4.62823,-4.54942 -4.86883,-4.32351 -0.1557,0.14618 -1.17536,1.07022 -2.26588,2.0534 -1.86298,1.67962 -2.80286,2.53849 -4.46524,4.08047 -3.75925,3.48695 -8.43062,7.65211 -8.63604,7.7002 -0.14074,0.0329 -0.43581,-0.16887 -0.65567,-0.44846 -0.35817,-0.45547 -7.03352,-7.82203 -8.45869,-9.33459 -0.31448,-0.33373 -1.60424,-1.75051 -2.86616,-3.14839 l -2.29442,-2.5416 -1.46225,1.44901 c -3.88034,3.84517 -8.30175,8.33146 -8.35091,8.47345 -0.0302,0.0872 0.98097,1.17945 2.24703,2.42729 1.26603,1.24782 3.96868,4.05664 6.00588,6.24182 2.03718,2.18518 3.88583,4.15869 4.10809,4.38558 0.22226,0.2269 0.69926,0.72768 1.06,1.11284 l 0.65591,0.7003 -5.20812,4.74742 c -2.86446,2.61108 -5.36936,4.89012 -5.56641,5.06455 -0.58438,0.51727 -4.18557,3.83227 -4.47251,4.11708 -0.14546,0.14437 -0.26447,0.32383 -0.26447,0.39879 0,0.075 2.21488,2.35045 4.92194,5.05664 l 4.92194,4.92035 3.2047,-3.23329 c 1.76258,-1.77831 4.43838,-4.39541 5.9462,-5.81578 1.50781,-1.42036 3.42335,-3.22999 4.25672,-4.02138 l 1.51524,-1.43892 1.07159,1.14265 c 10.1344,10.80628 13.72365,14.54824 13.95531,14.54904 0.12301,4e-4 2.17176,-1.97813 4.55268,-4.3968 z"
         id="path1287"
         inkscape:label="cross" /></g></g></svg>
