<?xml version="1.0" encoding="UTF-8" standalone="no"?>
<svg
   viewBox="0 0 512 512"
   style="height: 512px; width: 512px;"
   version="1.1"
   id="svg20"
   sodipodi:docname="icon_delete_trash2.svg"
   xml:space="preserve"
   inkscape:version="1.2.2 (732a01da63, 2022-12-09)"
   xmlns:inkscape="http://www.inkscape.org/namespaces/inkscape"
   xmlns:sodipodi="http://sodipodi.sourceforge.net/DTD/sodipodi-0.dtd"
   xmlns="http://www.w3.org/2000/svg"
   xmlns:svg="http://www.w3.org/2000/svg"><defs
     id="defs24"><rect
       x="75.169047"
       y="147.26997"
       width="365.1068"
       height="222.43902"
       id="rect8366" /><rect
       x="204.03027"
       y="193.29183"
       width="90.509669"
       height="102.78217"
       id="rect870" /><rect
       x="75.169047"
       y="147.26997"
       width="365.1068"
       height="222.43902"
       id="rect9898" /><rect
       x="75.169047"
       y="147.26997"
       width="365.1068"
       height="222.43902"
       id="rect10806" /><rect
       x="75.169047"
       y="147.26997"
       width="365.1068"
       height="222.43902"
       id="rect10864" /></defs><sodipodi:namedview
     id="namedview22"
     pagecolor="#ffffff"
     bordercolor="#000000"
     borderopacity="0.25"
     inkscape:showpageshadow="2"
     inkscape:pageopacity="0.0"
     inkscape:pagecheckerboard="0"
     inkscape:deskcolor="#d1d1d1"
     showgrid="false"
     inkscape:zoom="0.92187499"
     inkscape:cx="123.11865"
     inkscape:cy="277.15255"
     inkscape:window-width="1280"
     inkscape:window-height="730"
     inkscape:window-x="-6"
     inkscape:window-y="-6"
     inkscape:window-maximized="1"
     inkscape:current-layer="svg20"
     showguides="false" /><!-- react-empty: 6 --><g
     id="g17014"
     style="display:inline;stroke:#000000;stroke-width:8.4;stroke-dasharray:none;stroke-opacity:1"
     transform="matrix(0.90987755,0,0,0.90987755,23.071347,19.395608)"
     inkscape:label="trash"><path
       style="display:inline;fill:#999999;stroke:#000000;stroke-width:8.4;stroke-dasharray:none;stroke-opacity:1"
       d="m 178.83421,411.12096 c -5.84134,-1.79489 -10.40595,-6.90581 -11.24244,-12.58797 -0.26526,-1.80191 -10.62628,-217.42363 -10.62628,-221.14218 0,-0.7087 15.2694,-0.83788 99.03451,-0.83788 88.28192,0 99.03452,0.10045 99.03452,0.92515 0,4.23499 -10.39058,219.81402 -10.67238,221.42581 -0.77366,4.42501 -4.08898,8.79618 -8.46619,11.16247 l -2.43029,1.31379 -76.55429,0.10438 c -42.10486,0.0574 -77.23957,-0.10619 -78.07716,-0.36357 z"
       id="path16598" /><path
       id="rect16707"
       style="fill:#b3b3b3;fill-opacity:1;stroke:#000000;stroke-width:8.4;stroke-dasharray:none;stroke-opacity:1"
       d="m 255.99999,201.69381 c -3.58608,0 -7.17294,0.38504 -8.82124,1.15464 -4.74565,2.21575 -4.51215,-2.33166 -4.51215,88.56983 0,49.15617 0.26348,82.70375 0.65877,83.86555 0.36236,1.065 1.36735,2.67583 2.23577,3.57991 1.43018,1.48891 2.41476,1.64372 10.43885,1.64372 8.02411,0 9.00866,-0.15481 10.43885,-1.64372 0.86844,-0.90408 1.8734,-2.51491 2.23577,-3.57991 0.39526,-1.16179 0.65877,-34.70938 0.65877,-83.86555 0,-90.90149 0.23349,-86.35408 -4.51215,-88.56983 -1.6483,-0.7696 -5.23516,-1.15464 -8.82124,-1.15464 z m -50.5315,0.18908 c -8.21282,-0.30153 -11.4843,0.82648 -13.13711,4.52278 -1.19832,2.67995 -1.30984,167.03385 -0.11504,169.64456 1.78724,3.90529 3.21747,4.421 12.28205,4.43958 7.52788,0.0155 8.71282,-0.16735 10.33507,-1.5933 1.00777,-0.88579 2.17111,-2.9158 2.58546,-4.51017 0.52137,-2.00613 0.68685,-28.13604 0.54145,-84.85128 -0.22513,-87.80971 -0.0505,-83.72019 -3.64581,-86.31601 -0.92747,-0.66962 -4.21303,-1.16606 -8.84605,-1.33616 z m 101.06299,0 c -4.63304,0.1701 -7.9186,0.66654 -8.84605,1.33616 -3.59537,2.59581 -3.4207,-1.49371 -3.64581,86.31601 -0.14543,56.71522 0.0201,82.84516 0.54146,84.85128 1.36657,5.25834 3.19615,6.12342 12.92052,6.10347 6.99464,-0.0143 8.7697,-0.25677 10.00117,-1.37145 0.82331,-0.74525 1.84971,-2.12599 2.28089,-3.06813 1.19478,-2.61072 1.08327,-166.96463 -0.11505,-169.64456 -1.65281,-3.69631 -4.92429,-4.8243 -13.13711,-4.52278 z" /><path
       style="display:inline;fill:#999999;stroke:#000000;stroke-width:8.4;stroke-dasharray:none;stroke-opacity:1"
       d="m 358.77521,92.714867 c -4.32054,-15.441491 -4.66321,-16.41369 -6.2165,-17.637408 -2.37556,-1.871518 -4.84245,-2.720122 -7.63238,-2.625492 -1.34483,0.0456 -16.88313,3.94482 -34.52958,8.66493 l -32.08443,8.581987 -2.0186,-6.744609 c -1.75723,-5.871339 -2.19492,-6.812737 -3.38066,-7.271177 -2.03169,-0.785499 -70.88753,17.664394 -72.25424,19.360519 -0.79768,0.98991 -0.70603,2.024045 0.70782,7.987383 l 1.62418,6.8503 -32.07695,8.61 c -17.64231,4.73553 -33.04849,9.12784 -34.23594,9.76075 -2.46348,1.31302 -4.17557,3.28137 -5.29709,6.08993 -0.73332,1.83642 -0.54398,2.84971 3.43504,18.38268 l 4.21116,16.43913 112.16039,-30.05329 112.16039,-30.05329 z"
       id="path32640"
       inkscape:label="deckel tilted" /></g></svg>
