<?xml version="1.0" encoding="UTF-8" standalone="no"?>
<svg
   viewBox="0 0 512 512"
   style="height: 512px; width: 512px;"
   version="1.1"
   id="svg20"
   sodipodi:docname="icon_squid.svg"
   xml:space="preserve"
   inkscape:version="1.2.2 (732a01da63, 2022-12-09)"
   xmlns:inkscape="http://www.inkscape.org/namespaces/inkscape"
   xmlns:sodipodi="http://sodipodi.sourceforge.net/DTD/sodipodi-0.dtd"
   xmlns="http://www.w3.org/2000/svg"
   xmlns:svg="http://www.w3.org/2000/svg"><defs
     id="defs24"><rect
       x="108.91842"
       y="39.885617"
       width="285.33557"
       height="227.0412"
       id="rect3408" /><rect
       x="91.457628"
       y="26.847458"
       width="35.322034"
       height="24.881356"
       id="rect3398" /><rect
       x="75.169047"
       y="147.26997"
       width="365.1068"
       height="222.43902"
       id="rect8366" /><rect
       x="204.03027"
       y="193.29183"
       width="90.509669"
       height="102.78217"
       id="rect870" /><rect
       x="75.169047"
       y="147.26997"
       width="365.1068"
       height="222.43902"
       id="rect9898" /><rect
       x="75.169047"
       y="147.26997"
       width="365.1068"
       height="222.43902"
       id="rect10806" /><rect
       x="75.169047"
       y="147.26997"
       width="365.1068"
       height="222.43902"
       id="rect10864" /></defs><sodipodi:namedview
     id="namedview22"
     pagecolor="#ffffff"
     bordercolor="#000000"
     borderopacity="0.25"
     inkscape:showpageshadow="2"
     inkscape:pageopacity="0.0"
     inkscape:pagecheckerboard="0"
     inkscape:deskcolor="#d1d1d1"
     showgrid="false"
     inkscape:zoom="0.92187499"
     inkscape:cx="79.728814"
     inkscape:cy="252.20339"
     inkscape:window-width="1280"
     inkscape:window-height="730"
     inkscape:window-x="-6"
     inkscape:window-y="-6"
     inkscape:window-maximized="1"
     inkscape:current-layer="svg20"
     showguides="true"
     inkscape:lockguides="false" /><!-- react-empty: 6 --><g
     id="g24606"
     inkscape:label="squid nodes"
     style="display:inline"><path
       id="rect24447"
       style="opacity:1;fill:#808080;fill-opacity:1;stroke:#808080;stroke-width:2;stroke-dasharray:none;stroke-opacity:1"
       d="m 142.57422,-286.56055 h 15.72851 v 102.91407 h 3.00782 3.99218 180.47657 v 67.79687 h 7 15.12109 v -7 H 352.7793 v -129 h 14.73632 v -7 H 345.7793 v 1.44922 66.75391 H 165.30273 v -197.1543 h 207.92774 v -7 h -207.92774 -3.22656 -3.77344 v 101.24023 h -15.72851 z"
       inkscape:label="lines"
       transform="rotate(90)" /><path
       id="path22899"
       style="display:inline;opacity:1;fill:#d3d3d3;fill-opacity:1;stroke:#000000;stroke-width:3.49706;stroke-dasharray:none;stroke-opacity:1"
       d="m 290.56353,74.978258 a 35.756299,35.756299 0 0 0 -35.756,35.756002 35.756299,35.756299 0 0 0 35.756,35.75661 35.756299,35.756299 0 0 0 35.75662,-35.75661 35.756299,35.756299 0 0 0 -35.75662,-35.756002 z"
       inkscape:label="path18837" /><path
       id="path22902"
       style="display:inline;opacity:1;fill:#71797e;fill-opacity:1;stroke:#000000;stroke-width:3.49706;stroke-dasharray:none;stroke-opacity:1"
       d="m 187.44804,174.09011 a 35.756299,35.756299 0 0 0 -35.756,35.75601 35.756299,35.756299 0 0 0 35.756,35.75661 35.756299,35.756299 0 0 0 35.75662,-35.75661 35.756299,35.756299 0 0 0 -35.75662,-35.75601 z"
       inkscape:label="path18837" /><path
       id="path22904"
       style="display:inline;opacity:1;fill:#71797e;fill-opacity:1;stroke:#000000;stroke-width:3.49706;stroke-dasharray:none;stroke-opacity:1"
       d="m 391.44553,174.09011 a 35.756299,35.756299 0 0 0 -35.756,35.75601 35.756299,35.756299 0 0 0 35.756,35.75661 35.756299,35.756299 0 0 0 35.75662,-35.75661 35.756299,35.756299 0 0 0 -35.75662,-35.75601 z"
       inkscape:label="path18837" /><path
       id="path22906"
       style="display:inline;opacity:1;fill:#d3d3d3;fill-opacity:1;stroke:#000000;stroke-width:3.49706;stroke-dasharray:none;stroke-opacity:1"
       d="m 391.44553,361.2457 a 35.756299,35.756299 0 0 0 -35.756,35.75601 35.756299,35.756299 0 0 0 35.756,35.75661 35.756299,35.756299 0 0 0 35.75662,-35.75661 35.756299,35.756299 0 0 0 -35.75662,-35.75601 z"
       inkscape:label="path18837" /><path
       id="path22908"
       style="display:inline;opacity:1;fill:#71797e;fill-opacity:1;stroke:#000000;stroke-width:3.49706;stroke-dasharray:none;stroke-opacity:1"
       d="m 255.71381,361.2457 a 35.756299,35.756299 0 0 0 -35.756,35.75601 35.756299,35.756299 0 0 0 35.756,35.75661 35.756299,35.756299 0 0 0 35.75662,-35.75661 35.756299,35.756299 0 0 0 -35.75662,-35.75601 z"
       inkscape:label="path18837" /><path
       id="path22910"
       style="display:inline;opacity:1;fill:#71797e;fill-opacity:1;stroke:#000000;stroke-width:3.49706;stroke-dasharray:none;stroke-opacity:1"
       d="m 119.94931,361.2457 a 35.756299,35.756299 0 0 0 -35.756003,35.75601 35.756299,35.756299 0 0 0 35.756003,35.75661 35.756299,35.756299 0 0 0 35.75662,-35.75661 35.756299,35.756299 0 0 0 -35.75662,-35.75601 z"
       inkscape:label="path18837" /><path
       id="path22912"
       style="display:inline;opacity:1;fill:#d3d3d3;fill-opacity:1;stroke:#000000;stroke-width:3.49706;stroke-dasharray:none;stroke-opacity:1"
       d="m 187.44804,262.90087 a 35.756299,35.756299 0 0 0 -35.756,35.75601 35.756299,35.756299 0 0 0 35.756,35.75661 35.756299,35.756299 0 0 0 35.75662,-35.75661 35.756299,35.756299 0 0 0 -35.75662,-35.75601 z"
       inkscape:label="path18837" /></g></svg>
